<?xml version="1.0" standalone="no"?>
<!DOCTYPE svg PUBLIC "-//W3C//DTD SVG 20010904//EN"
 "http://www.w3.org/TR/2001/REC-SVG-20010904/DTD/svg10.dtd">
<svg version="1.0" xmlns="http://www.w3.org/2000/svg"
 width="2048.000000pt" height="2048.000000pt" viewBox="0 0 2048.000000 2048.000000"
 preserveAspectRatio="xMidYMid meet">

<g transform="translate(0.000000,2048.000000) scale(0.100000,-0.100000)"
fill="#000000" stroke="none">
<path d="M13402 15493 l3 -338 318 -3 317 -2 0 -234 0 -233 283 -248 c155
-136 283 -250 284 -254 1 -6 -249 -232 -474 -427 l-102 -89 -1 -227 0 -228
231 0 232 0 46 37 c90 74 827 741 959 868 l82 80 -86 75 -87 75 272 3 271 2 0
340 0 340 -335 0 -335 0 -1 -237 c0 -131 -4 -258 -7 -281 l-7 -44 -60 53 c-33
28 -163 147 -290 264 -126 116 -270 248 -319 293 l-90 82 -218 0 -218 0 0 335
0 335 -335 0 -335 0 2 -337z m204 209 c-3 -5 -20 -7 -38 -5 -26 2 -29 1 -13
-6 11 -5 23 -7 27 -5 4 3 9 0 12 -4 3 -5 -6 -14 -19 -20 -21 -10 -25 -9 -26 6
0 14 -2 14 -9 -3 -7 -17 -9 -15 -9 13 -1 31 0 32 40 32 22 0 38 -4 35 -8z
m199 -2 c-8 -13 -42 -18 -42 -6 0 6 11 12 24 12 12 1 21 -2 18 -6z m45 0 c0
-5 -7 -7 -15 -4 -8 4 -15 8 -15 10 0 2 7 4 15 4 8 0 15 -4 15 -10z m88 -29 c2
-20 -2 -38 -10 -43 -11 -8 -11 -10 1 -15 11 -4 11 -7 0 -14 -8 -4 -12 -22 -11
-43 2 -20 -2 -36 -8 -36 -5 0 -10 16 -10 35 0 39 -19 87 -31 79 -5 -3 -9 5 -9
18 0 18 -2 20 -10 8 -13 -21 -12 -6 2 25 10 22 17 26 47 23 33 -3 36 -6 39
-37z m-386 -60 c7 10 7 8 2 -6 -12 -27 -17 -315 -7 -315 5 0 7 15 5 33 -3 28
0 35 22 45 16 7 26 8 26 2 0 -6 -7 -10 -16 -10 -8 0 -12 -5 -9 -10 4 -6 10 -8
15 -5 5 3 11 -3 15 -14 3 -11 14 -22 23 -25 9 -3 0 -4 -20 -3 -37 3 -51 -6
-25 -16 6 -3 -3 -6 -20 -6 l-33 -1 1 173 c0 94 3 166 6 158 5 -11 7 -11 15 0z
m48 -120 c0 -6 -4 -13 -10 -16 -5 -3 -10 1 -10 9 0 9 5 16 10 16 6 0 10 -4 10
-9z m840 -474 c0 -4 4 -5 10 -2 5 3 15 -5 21 -19 7 -14 16 -23 21 -20 5 3 3
13 -4 22 -12 15 -11 16 5 3 11 -9 14 -18 8 -25 -9 -11 -11 -15 -11 -38 -1 -7
-10 4 -21 25 -20 38 -42 50 -37 21 2 -10 -2 -19 -9 -21 -7 -3 -9 3 -6 16 4 15
1 21 -11 21 -9 0 -16 6 -16 13 0 9 -2 9 -9 -1 -7 -11 -9 -10 -14 3 -6 13 0 15
33 13 22 -1 40 -6 40 -11z m-204 -18 c4 -7 0 -9 -12 -5 -22 6 -38 -2 -47 -24
-3 -9 -6 -6 -6 10 -1 21 4 25 29 27 16 1 32 -3 36 -8z m-18 -57 c5 -31 -15
-27 -21 3 -3 16 0 24 7 22 6 -2 12 -13 14 -25z m306 -12 c-6 -6 -10 -2 -11 12
-2 16 1 18 10 9 7 -7 8 -14 1 -21z m23 -32 c-3 -8 -6 -5 -6 6 -1 11 2 17 5 13
3 -3 4 -12 1 -19z m-366 -67 c1 -39 -1 -75 -5 -78 -3 -4 -6 31 -6 77 0 101 9
103 11 1z m1261 70 c2 -5 31 -11 65 -13 34 -2 60 -1 58 2 -2 4 -28 8 -57 9
-28 1 -54 4 -57 6 -3 3 80 4 185 3 l189 -3 2 -70 c3 -67 2 -69 -11 -40 -10 20
-15 24 -15 13 -1 -10 -8 -18 -17 -18 -8 0 -12 5 -9 10 3 6 0 17 -9 25 -11 11
-16 12 -20 2 -3 -8 -10 -6 -23 8 -27 30 -186 42 -203 15 -5 -9 -22 -11 -54 -8
-26 3 -46 1 -46 -4 0 -5 -4 -6 -10 -3 -5 3 -10 22 -10 41 0 27 4 34 19 34 11
0 21 -4 23 -9z m-794 -50 c-2 -17 4 -31 18 -45 14 -15 14 -16 0 -16 -9 0 -16
7 -16 16 0 8 -4 13 -9 9 -5 -3 -12 -1 -16 5 -4 6 -10 8 -15 5 -4 -3 -16 8 -26
23 -19 28 -20 37 -5 37 5 0 13 3 17 8 7 7 54 -30 52 -42z m-438 -53 c0 -34 3
-38 25 -38 23 0 24 -2 13 -20 -12 -19 -13 -19 -31 -1 -12 12 -19 35 -21 69 -1
29 2 46 6 39 4 -6 8 -29 8 -49z m539 -77 c7 -5 12 -14 10 -20 -3 -7 -11 -3
-21 9 -18 21 -13 26 11 11z m-525 -16 c3 -8 13 -15 21 -15 9 0 13 -5 10 -10
-6 -10 -54 18 -55 33 0 13 18 7 24 -8z m54 -24 c-1 -22 -5 -38 -10 -35 -8 5
-8 52 -1 67 9 17 14 4 11 -32z m26 -3 c-2 -3 6 -4 18 -1 13 3 20 2 16 -2 -4
-4 -3 -16 2 -25 13 -24 -9 -44 -30 -28 -12 8 -12 9 3 4 21 -7 22 3 1 18 -8 6
-17 27 -19 46 -3 26 -2 30 4 15 5 -11 7 -23 5 -27z m556 -48 c0 -5 -5 -10 -11
-10 -5 0 -7 5 -4 10 3 6 8 10 11 10 2 0 4 -4 4 -10z m-471 -31 c-8 -5 -9 -9
-4 -9 6 0 3 -5 -5 -10 -26 -17 -32 -11 -10 12 11 12 20 27 21 32 0 6 3 5 6 -3
3 -7 -1 -17 -8 -22z m566 -32 c1 -7 6 -11 12 -10 5 1 23 -12 39 -30 16 -17 21
-25 12 -18 -15 11 -19 11 -24 -3 -3 -9 -11 -16 -17 -16 -5 0 -3 8 7 19 15 16
15 19 1 31 -12 10 -15 10 -15 -1 0 -8 -6 -5 -15 7 -11 14 -14 15 -9 2 4 -11
-2 -21 -18 -29 -21 -11 -22 -11 -9 4 7 10 10 17 6 17 -4 0 -3 6 2 13 6 6 9 20
7 31 -2 14 0 16 9 7 7 -7 12 -17 12 -24z m-61 7 c3 -8 2 -12 -4 -9 -6 3 -10
10 -10 16 0 14 7 11 14 -7z m-395 -28 c15 -8 35 -25 43 -38 18 -27 21 -77 4
-73 -39 10 -55 18 -50 26 3 5 10 6 16 3 7 -4 8 -2 4 5 -4 6 -12 9 -17 6 -5 -4
-9 0 -9 7 0 11 -2 10 -9 0 -7 -11 -9 -10 -15 3 -3 9 -10 14 -15 10 -5 -3 -12
-1 -16 4 -3 6 3 8 15 6 19 -4 19 -3 3 21 -11 18 -19 22 -26 15 -6 -6 -15 -11
-21 -11 -18 0 29 29 47 30 10 0 31 -7 46 -14z m978 -28 c1 -10 -4 -19 -10 -19
-7 -1 4 -5 23 -9 30 -6 26 -8 -27 -9 -60 -1 -63 0 -63 23 0 13 8 30 17 37 11
9 14 10 9 2 -5 -9 -2 -11 8 -7 9 3 16 10 16 15 0 17 26 -14 27 -33z m-302
-156 c-3 -10 0 -12 10 -8 9 3 15 0 15 -9 0 -20 -21 -30 -31 -14 -7 11 -9 11
-9 1 0 -7 -5 -10 -10 -7 -6 4 -8 10 -5 15 3 5 1 11 -5 15 -7 4 -7 12 0 24 10
19 3 34 -11 25 -4 -2 -6 -11 -2 -19 3 -9 -1 -15 -9 -15 -16 0 -44 24 -91 76
l-27 31 31 -5 c22 -3 30 -1 25 7 -4 6 -12 8 -18 5 -7 -4 -8 -2 -4 5 11 17 149
-107 141 -127z m-589 88 c0 -11 -4 -20 -8 -20 -10 0 -11 24 -1 33 9 9 9 10 9
-13z m20 -25 c-3 -8 2 -19 12 -24 9 -6 15 -11 12 -11 -33 -8 -36 -6 -34 14 1
11 3 24 3 29 1 4 4 7 7 7 3 0 4 -7 0 -15z m80 -53 c0 -15 -7 -18 -29 -16 -16
2 -26 0 -22 -6 3 -5 -1 -7 -9 -4 -12 5 -13 9 -3 19 7 7 16 10 21 5 5 -5 15 -2
23 6 18 18 19 18 19 -4z m-20 -49 c0 -10 4 -17 10 -16 6 1 11 -5 11 -13 0 -12
-5 -11 -20 4 -11 11 -16 25 -13 31 10 16 14 14 12 -6z m607 -27 c20 -16 34
-32 31 -37 -3 -5 -2 -8 3 -7 9 3 83 -51 83 -61 0 -3 -33 -37 -74 -74 -49 -44
-77 -63 -82 -56 -4 7 -3 9 3 6 6 -4 16 0 22 7 8 9 8 16 2 20 -5 4 -13 1 -16
-5 -4 -5 -14 -8 -22 -5 -10 4 -13 1 -9 -12 4 -11 -4 -23 -24 -37 -28 -19 -44
-55 -17 -39 6 4 4 -2 -7 -14 -17 -20 -43 -22 -31 -2 3 4 2 10 -2 13 -5 2 -2 2
5 1 6 -2 12 1 12 6 0 6 -4 10 -9 10 -5 0 -12 8 -16 18 -5 14 -4 15 6 5 18 -18
32 -16 25 2 -3 8 -2 14 2 14 20 -3 30 3 40 26 8 16 17 23 27 19 11 -5 14 -2 9
10 -4 9 -3 16 2 15 22 -4 35 2 28 13 -4 7 -3 8 5 4 9 -6 9 -11 1 -21 -7 -8 -7
-16 -2 -19 6 -3 15 1 22 8 9 12 7 19 -9 35 -16 16 -18 21 -6 21 8 0 15 5 15
11 0 5 6 7 13 4 6 -4 4 0 -5 8 -10 8 -18 20 -19 28 0 11 -2 11 -6 1 -4 -10 -9
-8 -19 6 -7 11 -23 22 -34 25 -15 4 -20 0 -20 -16 0 -16 -3 -18 -12 -9 -8 8
-8 15 1 25 14 17 4 47 -15 47 -21 0 -17 14 9 25 33 15 49 12 90 -19z m-28
-145 c3 -6 -3 -9 -14 -8 -11 0 -17 5 -15 9 7 11 22 10 29 -1z m-70 -89 c-3 -3
-11 0 -18 7 -9 10 -8 11 6 5 10 -3 15 -9 12 -12z m-535 -97 c0 -21 -2 -24 -13
-13 -10 9 -11 16 -3 25 15 17 16 16 16 -12z m-60 11 c0 -2 -8 -10 -17 -17 -16
-13 -17 -12 -4 4 13 16 21 21 21 13z m10 -46 c0 -5 -5 -10 -11 -10 -5 0 -7 5
-4 10 3 6 8 10 11 10 2 0 4 -4 4 -10z m484 -19 c3 -5 -2 -15 -12 -22 -15 -12
-16 -12 -5 2 7 9 10 19 6 22 -3 4 -4 7 0 7 3 0 8 -4 11 -9z m-187 -93 c-3 -8
-6 -5 -6 6 -1 11 2 17 5 13 3 -3 4 -12 1 -19z m-497 -12 c0 -2 -8 -10 -17 -17
-16 -13 -17 -12 -4 4 13 16 21 21 21 13z m570 -9 c0 -2 -15 -16 -32 -33 l-33
-29 29 33 c28 30 36 37 36 29z m-205 -176 c3 -5 0 -13 -6 -17 -7 -4 -9 -3 -5
4 3 5 0 13 -6 15 -9 4 -10 6 -1 6 6 1 14 -3 18 -8z m-80 -31 c-4 -6 -2 -17 4
-24 9 -10 7 -17 -6 -27 -16 -13 -17 -12 -5 3 10 12 10 17 1 20 -12 4 -6 38 6
38 4 0 3 -5 0 -10z m-457 -114 c3 -38 7 -49 23 -53 10 -3 19 -9 19 -13 0 -12
58 -30 94 -30 24 0 27 3 16 10 -12 8 -11 10 8 10 12 0 22 5 22 10 0 6 -9 10
-19 10 -11 0 -21 5 -23 11 -2 5 -19 11 -38 13 -18 1 -35 7 -38 14 -4 14 70 4
81 -12 6 -8 10 -7 14 2 7 17 26 15 19 -3 -3 -8 -1 -15 4 -15 6 0 10 -7 10 -16
0 -14 5 -13 35 5 19 11 35 16 35 11 0 -6 5 -10 11 -10 5 0 7 4 4 10 -3 6 1 7
9 4 9 -3 13 -10 10 -15 -6 -11 8 -12 22 -1 5 4 -3 -6 -19 -22 -24 -22 -32 -25
-39 -15 -8 11 -9 10 -5 -3 3 -9 -1 -22 -9 -28 -11 -10 -14 -9 -14 3 0 9 -4 18
-9 22 -6 3 -8 -3 -6 -13 2 -15 -3 -19 -26 -19 -16 0 -29 4 -29 9 0 14 -140 10
-141 -4 0 -10 -2 -10 -6 0 -2 6 -11 12 -19 12 -9 0 -12 -4 -9 -10 3 -6 -5 -10
-18 -10 -23 0 -25 3 -21 38 2 20 5 48 5 61 1 18 3 21 10 10 7 -9 7 3 3 34 -6
44 -5 49 12 45 15 -2 20 -14 22 -52z m432 38 c0 -8 -19 -13 -24 -6 -3 5 1 9 9
9 8 0 15 -2 15 -3z m-74 -40 c1 -9 0 -13 -4 -10 -3 4 -7 14 -8 22 -1 9 0 13 4
10 3 -4 7 -14 8 -22z m-316 -20 c0 -8 -4 -12 -10 -9 -5 3 -10 10 -10 16 0 5 5
9 10 9 6 0 10 -7 10 -16z"/>
<path d="M15633 14893 c20 -2 54 -2 75 0 20 2 3 4 -38 4 -41 0 -58 -2 -37 -4z"/>
<path d="M14597 14883 c-2 -5 -1 -18 2 -30 5 -19 8 -20 25 -7 18 13 18 14 2
14 -9 0 -15 4 -11 9 3 5 1 12 -4 15 -5 4 -11 3 -14 -1z"/>
<path d="M14461 14543 c-1 -17 16 -25 25 -12 4 7 3 9 -4 5 -5 -3 -13 0 -15 6
-4 9 -6 10 -6 1z"/>
<path d="M14500 14510 c0 -5 5 -10 11 -10 5 0 7 5 4 10 -3 6 -8 10 -11 10 -2
0 -4 -4 -4 -10z"/>
<path d="M15066 14462 c2 -3 -1 -11 -7 -19 -8 -9 -8 -13 -1 -13 16 0 26 20 15
30 -6 4 -8 5 -7 2z"/>
<path d="M15220 14291 c0 -10 19 -25 25 -20 1 2 -3 10 -11 17 -8 7 -14 8 -14
3z"/>
<path d="M15256 14247 c3 -10 9 -15 12 -12 3 3 0 11 -7 18 -10 9 -11 8 -5 -6z"/>
<path d="M14405 13380 c3 -5 8 -10 11 -10 2 0 4 5 4 10 0 6 -5 10 -11 10 -5 0
-7 -4 -4 -10z"/>
<path d="M12060 14383 c-341 -23 -706 -98 -980 -202 -216 -81 -500 -219 -500
-243 0 -6 -3 -9 -6 -5 -10 9 -66 -22 -59 -33 4 -6 17 -10 31 -10 18 0 25 -5
22 -17 -4 -23 -28 -29 -28 -6 -1 17 -1 17 -14 0 -11 -14 -15 -15 -19 -5 -3 7
-6 2 -7 -12 -1 -23 -2 -23 -10 -5 -7 17 -8 16 -7 -8 1 -17 6 -26 13 -23 7 3
15 -2 18 -9 7 -18 -31 -40 -61 -36 -13 1 -23 -3 -23 -9 0 -6 5 -8 10 -5 6 3
10 1 10 -4 0 -6 -5 -11 -11 -11 -5 0 -7 -5 -3 -12 4 -6 3 -8 -3 -5 -6 4 -16 0
-23 -8 -7 -8 -21 -15 -31 -15 -9 0 -24 -7 -33 -15 -10 -10 -17 -12 -21 -5 -5
8 -11 8 -20 0 -9 -7 -18 -6 -31 7 -11 10 -15 15 -10 11 5 -4 15 3 21 15 6 12
17 21 24 19 7 -1 10 2 7 7 -4 5 4 13 15 16 20 7 20 8 6 17 -13 7 -35 -4 -92
-47 -46 -33 -73 -60 -69 -67 4 -6 3 -8 -3 -5 -16 10 -142 -103 -300 -268 -137
-141 -156 -165 -133 -165 6 0 10 7 10 15 0 8 5 14 12 13 7 -2 12 2 13 7 0 21
44 67 56 59 9 -5 10 -2 6 9 -5 14 8 34 26 36 4 1 7 4 8 9 2 15 22 32 32 25 5
-3 7 -2 4 4 -6 9 32 54 43 50 12 -4 52 32 46 42 -9 14 47 3 57 -12 5 -7 6 -3
2 11 -4 15 -1 24 9 28 9 3 16 10 16 16 0 5 -5 6 -12 2 -8 -5 -9 -2 -5 10 4 10
7 23 7 29 0 7 6 4 14 -5 12 -16 13 -16 28 1 11 13 13 22 6 29 -8 8 -4 9 12 5
17 -5 21 -3 15 7 -5 8 -4 11 2 7 6 -4 13 0 17 8 3 8 11 15 18 14 10 0 10 -2 1
-6 -7 -2 -13 -9 -13 -14 0 -6 5 -7 11 -3 7 4 10 1 7 -7 -3 -8 -10 -13 -14 -12
-5 1 -20 -6 -33 -16 -20 -15 -21 -19 -7 -24 10 -4 16 -1 16 7 0 7 6 13 13 13
8 0 14 -6 14 -13 0 -7 -4 -11 -8 -8 -4 2 -11 -1 -14 -7 -4 -5 -14 -8 -24 -4
-12 5 -13 3 -4 -6 6 -6 9 -18 6 -26 -4 -11 -8 -10 -19 4 -12 17 -13 16 -7 -4
4 -17 1 -23 -10 -23 -9 0 -21 -9 -27 -20 -6 -11 -18 -20 -26 -20 -12 0 -15 -7
-12 -29 3 -23 1 -27 -14 -23 -13 3 -17 0 -13 -10 4 -10 -2 -17 -16 -21 -13 -4
-20 -9 -16 -13 3 -3 -4 -15 -16 -26 -12 -11 -15 -16 -7 -12 8 4 4 -5 -9 -19
-27 -30 -41 -37 -20 -9 13 15 12 16 -3 4 -10 -8 -16 -17 -15 -21 4 -13 -64
-90 -76 -87 -7 1 -8 1 -4 -2 13 -7 -14 -31 -29 -25 -10 4 -12 0 -7 -13 5 -14
3 -16 -12 -11 -16 7 -16 5 -4 -10 9 -11 10 -14 2 -9 -8 4 -13 1 -13 -9 0 -22
-60 -95 -78 -95 -8 0 -12 -6 -9 -15 4 -8 1 -17 -5 -21 -7 -4 -8 -3 -4 4 4 7 2
12 -4 12 -6 0 -13 -7 -16 -15 -4 -8 -14 -15 -23 -15 -14 0 -14 2 -1 10 13 9
13 10 0 11 -8 1 -19 1 -23 0 -5 -1 -6 3 -2 9 4 6 1 19 -7 28 -12 16 -11 16 6
2 18 -14 19 -13 14 2 -4 9 -4 19 0 22 3 4 7 14 8 24 2 10 -8 4 -26 -18 -16
-19 -27 -41 -25 -48 3 -7 1 -11 -4 -8 -10 6 -127 -172 -190 -287 -23 -44 -37
-75 -30 -71 9 5 10 2 6 -10 -6 -14 -3 -17 9 -12 13 5 15 2 11 -13 -5 -19 -4
-19 19 -4 13 8 21 20 17 26 -4 6 -1 7 6 2 10 -6 11 -3 2 14 -7 11 -14 21 -17
21 -3 0 -3 -4 1 -9 3 -5 1 -12 -5 -16 -6 -4 -7 -12 -3 -18 4 -7 0 -6 -10 2
-19 15 -23 36 -5 25 7 -4 8 -3 4 5 -4 6 -13 8 -19 5 -7 -4 -9 -3 -4 1 11 13
67 13 68 1 0 -6 4 -2 9 9 7 14 8 8 3 -19 -4 -30 -3 -37 7 -31 9 6 11 4 6 -4
-5 -7 -14 -10 -22 -7 -9 3 -14 -1 -14 -13 0 -10 -11 -26 -24 -36 -14 -10 -22
-25 -19 -32 5 -12 7 -12 14 -2 4 8 11 11 14 7 3 -3 -1 -13 -10 -21 -8 -9 -15
-24 -15 -33 0 -14 -3 -15 -12 -6 -18 18 -26 14 -23 -12 2 -14 -2 -27 -9 -29
-13 -5 -14 31 -2 51 4 7 3 12 -3 12 -5 0 -13 -5 -16 -10 -7 -12 -25 -4 -25 12
0 5 7 8 15 4 10 -3 15 1 15 13 0 11 -6 22 -12 24 -7 3 -3 6 10 6 20 1 21 3 10
21 -12 18 -15 16 -40 -35 -45 -88 -89 -206 -82 -217 4 -6 3 -8 -2 -5 -10 6
-88 -202 -80 -210 2 -2 10 13 16 34 7 21 15 43 19 48 6 10 7 16 10 38 2 15 24
-21 28 -45 2 -12 -4 -18 -15 -18 -14 0 -15 -2 -2 -10 9 -6 18 -6 24 0 16 16
23 11 22 -16 -1 -14 -8 -29 -15 -33 -11 -7 -11 -9 0 -13 11 -4 8 -24 -11 -101
-22 -88 -26 -96 -47 -95 -13 2 -23 6 -23 10 0 13 -23 4 -40 -16 -15 -17 -17
-17 -17 -3 0 10 3 15 5 12 8 -7 52 57 52 74 -1 10 -6 7 -15 -9 -12 -22 -14
-23 -20 -7 -4 9 -2 23 4 31 6 7 8 16 4 20 -4 4 0 4 9 1 15 -6 15 -4 5 19 l-12
26 -13 -43 c-7 -23 -10 -48 -7 -54 2 -7 0 -13 -4 -13 -9 0 -67 -288 -59 -295
2 -2 10 23 17 55 8 33 17 60 22 60 5 0 9 -4 9 -8 0 -5 7 -9 15 -9 22 0 18 14
-6 20 -19 5 -17 9 23 48 24 23 38 39 31 36 -6 -4 -21 -3 -33 1 -21 8 -21 8 -2
25 20 19 36 10 44 -23 2 -8 7 -18 11 -21 11 -8 -2 -79 -14 -79 -5 0 -6 -13 -2
-30 3 -16 1 -30 -4 -30 -5 0 -7 -15 -6 -32 5 -44 -10 -66 -31 -49 -9 8 -16 19
-16 26 0 6 -7 12 -15 12 -13 0 -13 -3 2 -19 15 -16 11 -23 -10 -19 -5 1 -6 -3
-3 -8 4 -5 2 -12 -3 -15 -5 -4 -12 2 -14 11 -3 10 -5 0 -5 -22 0 -31 1 -35 8
-20 8 18 9 17 9 -8 1 -18 -3 -26 -10 -22 -6 4 -9 0 -7 -10 2 -10 -2 -20 -9
-22 -8 -3 -11 11 -8 49 4 51 4 51 -5 13 -5 -22 -8 -60 -8 -85 1 -28 3 -35 5
-17 3 19 10 27 24 27 11 0 19 -7 19 -16 0 -8 -4 -12 -10 -9 -5 3 -10 1 -10 -4
0 -6 6 -11 14 -11 8 0 16 -7 20 -15 3 -8 12 -15 21 -15 11 0 15 -11 15 -47 0
-31 -3 -43 -9 -34 -7 10 -10 11 -16 1 -5 -8 -1 -18 8 -25 12 -8 17 -27 17 -56
0 -30 -3 -39 -9 -30 -5 8 -7 21 -4 30 4 10 -1 8 -14 -6 -11 -13 -24 -19 -29
-13 -5 5 -14 2 -22 -6 -7 -8 -8 -14 -2 -14 5 0 10 -7 10 -15 0 -8 -7 -15 -15
-15 -11 0 -15 18 -18 83 -1 45 -3 18 -4 -63 -1 -80 3 -156 7 -170 8 -25 8 -25
10 5 1 17 4 24 7 18 2 -7 11 -13 19 -13 9 0 12 -4 9 -10 -3 -5 -1 -10 4 -10 6
0 11 5 11 10 0 6 5 10 11 10 8 0 9 -4 0 -13 -6 -8 -8 -17 -4 -21 4 -4 -5 -5
-20 -2 -26 5 -48 -9 -26 -16 6 -2 -15 -18 -49 -36 -226 -121 -446 -274 -539
-375 -113 -124 -154 -215 -161 -358 -5 -112 11 -186 63 -296 137 -292 371
-485 685 -566 120 -31 155 -36 154 -19 -1 6 -2 34 -2 61 l-2 48 -55 6 c-64 6
-170 52 -191 81 -18 26 -18 79 1 115 24 48 144 149 255 216 178 107 342 186
860 413 519 228 721 331 944 480 469 316 579 633 331 960 -143 189 -421 323
-717 346 l-78 6 0 -59 0 -58 36 -6 c51 -8 84 -42 84 -84 0 -49 -21 -83 -89
-144 -60 -55 -249 -175 -259 -165 -10 11 31 194 71 306 22 63 68 172 103 241
35 70 60 129 57 133 -4 3 -1 6 5 6 6 0 38 39 70 88 110 162 278 334 439 451
42 30 62 50 58 59 -4 12 -2 12 8 4 10 -9 18 -7 33 7 17 15 203 110 324 164 54
24 256 83 345 101 201 39 473 48 677 21 127 -17 327 -63 406 -94 l53 -21 47
76 c26 41 106 166 179 277 141 216 236 365 242 381 2 5 -3 6 -12 3 -11 -4 -14
-2 -10 9 4 10 9 12 18 4 10 -8 37 26 115 146 56 86 103 164 105 174 4 19 -29
35 -215 105 -389 147 -927 227 -1340 198z m0 -25 c0 -9 4 -8 10 2 8 13 10 12
10 -2 0 -11 7 -18 18 -17 10 0 12 3 5 6 -21 8 -15 23 8 23 15 0 19 -5 15 -15
-7 -19 1 -19 21 1 14 13 42 15 217 10 225 -7 236 -7 236 -17 0 -14 -34 -19
-41 -7 -5 8 -8 5 -6 -9 0 -12 4 -20 7 -18 3 2 12 0 18 -4 8 -5 -2 -8 -25 -9
-20 -1 -41 4 -45 11 -6 9 -8 9 -8 -1 0 -8 9 -16 20 -19 30 -8 24 -20 -10 -20
-16 0 -30 4 -30 9 0 4 -7 8 -16 8 -8 0 -13 -3 -11 -7 3 -5 -6 -9 -20 -10 -19
-1 -22 1 -12 8 11 7 11 9 -3 9 -10 0 -18 -4 -18 -10 0 -5 -5 -10 -11 -10 -5 0
-8 4 -5 9 3 5 -11 12 -32 17 l-37 7 50 8 c28 5 56 6 63 4 8 -3 10 0 6 6 -3 6
-19 9 -35 5 -17 -3 -30 -1 -33 7 -5 9 -7 9 -12 0 -6 -14 -49 -8 -72 10 -9 7
-17 5 -27 -9 -12 -17 -11 -19 18 -24 27 -5 29 -6 11 -11 -12 -4 -28 -3 -36 2
-8 4 -31 2 -54 -6 l-39 -13 45 -4 c25 -3 2 -5 -50 -5 -52 0 -85 2 -72 4 13 3
22 11 21 21 0 11 -3 12 -6 5 -6 -15 -33 -17 -33 -3 0 6 5 10 10 10 6 0 10 5
10 11 0 5 -4 7 -10 4 -5 -3 -23 2 -40 11 -16 10 -32 15 -35 12 -10 -10 7 -38
24 -39 10 0 11 -2 3 -6 -6 -2 -10 -9 -7 -13 6 -9 -28 -5 -45 5 -6 3 -10 1 -10
-4 0 -6 -7 -11 -16 -11 -9 0 -12 -5 -8 -12 5 -7 3 -8 -6 -3 -10 6 -10 10 3 20
12 9 14 14 5 23 -8 8 -9 15 -2 22 14 14 46 2 37 -14 -3 -6 -2 -7 3 -3 5 5 9
16 9 25 0 15 19 23 68 31 4 0 7 -5 7 -11z m-180 -23 c-11 -13 -10 -14 6 -8 10
3 23 11 27 17 5 7 7 5 5 -4 -2 -8 -20 -23 -39 -32 l-34 -18 34 0 c57 0 27 -11
-33 -12 -31 -1 -56 -5 -56 -10 0 -4 -8 -8 -17 -8 -13 0 -14 3 -5 12 7 7 12 17
12 23 0 5 -5 3 -10 -5 -6 -10 -10 -11 -10 -2 0 6 -7 12 -16 12 -8 0 -22 7 -31
15 -14 14 -13 15 11 9 18 -4 26 -2 26 7 0 8 6 5 15 -7 15 -19 15 -19 8 1 -6
16 -4 18 8 8 11 -9 18 -8 33 3 11 8 33 14 49 14 25 0 28 -2 17 -15z m-260 -59
c0 -14 -49 -40 -58 -31 -4 3 4 8 17 12 17 4 19 8 9 14 -10 7 -11 9 0 9 7 0 10
4 7 10 -3 6 1 7 9 4 9 -3 16 -12 16 -18z m995 14 c-3 -5 -12 -10 -18 -10 -7 0
-6 4 3 10 19 12 23 12 15 0z m-878 -56 c-3 -3 -12 -4 -19 -1 -8 3 -5 6 6 6 11
1 17 -2 13 -5z m-501 -50 c-19 -19 -21 -11 -4 16 7 11 14 16 16 10 2 -5 -4
-17 -12 -26z m169 27 c3 -5 1 -12 -5 -16 -5 -3 -10 1 -10 9 0 18 6 21 15 7z
m1912 -37 c-9 -9 -28 6 -21 18 4 6 10 6 17 -1 6 -6 8 -13 4 -17z m16 -9 c41
-3 64 -15 28 -15 -14 0 -20 -4 -15 -11 5 -8 1 -8 -14 0 -12 6 -23 7 -26 2 -9
-15 -65 -19 -59 -5 2 7 11 10 19 7 8 -3 14 0 14 6 0 6 -4 11 -10 11 -5 0 -10
5 -10 11 0 7 7 8 18 4 9 -4 34 -8 55 -10z m-108 -25 c-3 -5 -12 -10 -18 -10
-7 0 -6 4 3 10 19 12 23 12 15 0z m-2300 -53 c-12 -10 -14 -16 -7 -21 7 -4 17
-4 22 -1 6 3 10 1 10 -4 0 -6 -7 -11 -15 -11 -10 0 -15 -10 -15 -30 0 -22 -5
-30 -17 -29 -11 0 -13 3 -5 6 24 9 12 22 -13 13 -14 -5 -25 -6 -25 -2 0 4 -4
1 -8 -6 -7 -10 -14 -10 -35 1 -24 13 -25 16 -12 33 10 14 14 15 15 5 0 -11 4
-10 13 4 8 10 19 15 26 11 7 -4 10 -2 9 4 -2 7 5 14 16 15 10 2 23 8 29 14 6
6 15 11 21 11 5 0 2 -6 -9 -13z m2640 -57 c-3 -5 -12 -10 -18 -10 -7 0 -6 4 3
10 19 12 23 12 15 0z m-2803 -52 c-12 -12 -32 -2 -32 17 0 18 34 24 38 7 2 -8
-1 -19 -6 -24z m28 -8 c0 -5 -5 -10 -11 -10 -5 0 -7 5 -4 10 3 6 8 10 11 10 2
0 4 -4 4 -10z m-150 -39 c0 -5 -7 -14 -15 -21 -8 -7 -12 -16 -10 -21 9 -13
-17 -48 -31 -42 -7 2 -10 11 -7 19 3 8 0 21 -6 28 -10 12 -7 17 16 29 33 17
53 21 53 8z m2749 -102 c-15 -9 -32 -2 -24 11 3 5 13 6 21 3 12 -4 13 -8 3
-14z m-2826 4 c-7 -2 -19 -2 -25 0 -7 3 -2 5 12 5 14 0 19 -2 13 -5z m2794
-38 c0 -8 -4 -15 -9 -15 -10 0 -11 14 -1 23 9 10 10 9 10 -8z m-3091 -126 c10
-11 13 -19 7 -17 -6 2 -19 -6 -28 -17 -12 -15 -15 -16 -12 -4 3 9 -1 25 -8 36
-12 16 -11 19 5 20 10 1 26 -7 36 -18z m-54 -26 c-5 -24 -6 -25 -12 -8 -8 21
-4 35 9 35 5 0 6 -12 3 -27z m93 7 c3 -5 1 -10 -4 -10 -6 0 -11 5 -11 10 0 6
2 10 4 10 3 0 8 -4 11 -10z m-251 -115 c4 -10 -1 -15 -15 -15 -17 0 -18 2 -7
15 16 18 15 18 22 0z m-74 -59 c0 -2 -8 -10 -17 -17 -16 -13 -17 -12 -4 4 13
16 21 21 21 13z m2320 -231 c0 -8 5 -15 11 -15 5 0 7 5 3 12 -4 7 6 2 23 -10
17 -12 37 -22 45 -22 10 0 9 -3 -2 -10 -14 -9 -11 -12 19 -14 15 -1 25 -36 10
-36 -5 0 -9 4 -9 10 0 5 -6 7 -14 4 -8 -3 -17 -1 -21 5 -3 6 -14 11 -23 11
-13 0 -14 -2 -4 -9 20 -12 -17 -19 -104 -20 -58 -1 -76 3 -98 20 -14 11 -24
24 -21 29 3 5 -1 11 -7 14 -7 4 1 4 18 2 17 -3 40 1 50 9 11 7 35 12 54 10 18
-2 41 0 49 4 9 3 -29 9 -84 12 l-100 5 103 2 c85 2 102 -1 102 -13z m-249 -48
c-10 -9 -11 -8 -5 6 3 10 9 15 12 12 3 -3 0 -11 -7 -18z m-21 7 c0 -8 -19 -13
-24 -6 -3 5 1 9 9 9 8 0 15 -2 15 -3z m-31 -38 c-2 -2 -15 -7 -29 -11 l-25 -7
20 20 c12 11 24 16 29 11 5 -5 8 -10 5 -13z m111 4 c11 -7 5 -8 -20 -4 -43 8
-51 14 -19 14 13 0 31 -5 39 -10z m-570 -70 c0 -18 -52 -32 -75 -21 -17 8 -13
10 23 10 23 1 42 6 42 11 0 6 2 10 5 10 3 0 5 -5 5 -10z m-103 -42 c-3 -8 -6
-5 -6 6 -1 11 2 17 5 13 3 -3 4 -12 1 -19z m89 -15 c-10 -10 -19 5 -10 18 6
11 8 11 12 0 2 -7 1 -15 -2 -18z m-1906 -108 c0 -8 -4 -15 -10 -15 -5 0 -10 6
-10 13 0 8 -4 7 -10 -3 -5 -8 -10 -10 -10 -4 0 14 10 24 27 24 7 0 13 -7 13
-15z m-29 -47 c-9 -10 -20 -18 -26 -18 -5 0 -4 4 4 9 8 5 9 11 3 15 -6 3 -17
-3 -26 -15 -14 -20 -16 -20 -37 -5 -13 9 -18 16 -11 16 7 0 11 3 9 8 -3 4 18
7 47 7 49 1 51 0 37 -17z m1493 -14 c3 -8 2 -12 -4 -9 -6 3 -10 10 -10 16 0
14 7 11 14 -7z m-1581 -21 c-4 -11 -3 -14 5 -9 7 4 12 2 12 -5 0 -9 3 -9 14 0
8 7 24 14 36 16 22 4 22 4 4 -14 -10 -10 -22 -17 -26 -14 -5 2 -8 0 -8 -4 0
-5 -9 -9 -20 -10 -13 -1 -18 2 -14 9 4 6 3 9 -2 5 -5 -3 -18 1 -29 9 -16 12
-17 14 -2 14 9 0 17 5 17 10 0 6 4 10 10 10 5 0 6 -7 3 -17z m1552 -2 c3 -5 1
-12 -5 -16 -5 -3 -10 1 -10 9 0 18 6 21 15 7z m-31 -62 c-5 -9 -34 -13 -34 -5
0 2 3 12 6 20 5 13 9 14 20 5 8 -6 11 -15 8 -20z m-1523 -22 c-6 -8 -9 -16 -6
-19 3 -3 -1 -11 -10 -18 -8 -7 -15 -19 -15 -27 0 -13 2 -13 17 -2 15 13 15 12
3 -7 -10 -17 -16 -19 -26 -10 -10 9 -9 16 3 34 8 13 12 26 9 29 -6 6 16 32 28
33 5 0 3 -6 -3 -13z m1497 4 c11 -7 10 -10 -3 -15 -20 -7 -38 1 -30 15 7 11
16 11 33 0z m-1541 -7 c-3 -3 -12 -4 -19 -1 -8 3 -5 6 6 6 11 1 17 -2 13 -5z
m1086 -389 c-3 -9 -8 -14 -10 -11 -3 3 -2 9 2 15 9 16 15 13 8 -4z m-1327 -94
c-3 -5 3 -11 14 -14 12 -3 24 1 30 11 11 19 13 8 4 -26 -6 -21 -7 -21 -19 -5
-12 16 -14 16 -34 -7 -11 -14 -20 -20 -21 -14 0 5 5 15 11 21 8 8 7 13 -2 18
-8 6 -10 4 -4 -5 6 -9 4 -11 -5 -5 -10 6 -9 11 5 22 22 15 28 17 21 4z m1284
-51 c0 -5 -2 -10 -4 -10 -3 0 -8 5 -11 10 -3 6 -1 10 4 10 6 0 11 -4 11 -10z
m-1283 -51 c2 -24 0 -23 -16 8 -9 18 -9 22 2 18 7 -3 13 -15 14 -26z m1163
-144 c-7 -9 -15 -13 -17 -11 -6 6 20 36 26 30 2 -2 -2 -10 -9 -19z m502 -160
c179 -73 324 -198 394 -339 37 -75 39 -85 39 -170 0 -81 -3 -98 -31 -157 -38
-80 -139 -190 -262 -286 -185 -144 -505 -315 -1017 -540 -675 -298 -864 -393
-1035 -523 -108 -83 -157 -148 -181 -243 -6 -26 -14 -47 -16 -47 -3 0 -27 16
-53 35 -77 56 -201 195 -252 281 -69 118 -92 191 -92 299 0 80 3 97 30 155 97
206 362 389 932 646 180 82 494 220 661 291 175 75 392 188 503 262 172 115
254 225 246 326 l-4 52 39 -9 c21 -4 66 -19 99 -33z m-617 -317 c-1 -12 -8
-24 -16 -26 -12 -3 -12 -2 0 6 11 8 9 11 -8 17 -21 6 -21 7 -4 20 22 17 30 12
28 -17z m-1158 -15 c-3 -10 -5 -4 -5 12 0 17 2 24 5 18 2 -7 2 -21 0 -30z
m1037 8 c-10 -10 -22 -17 -26 -14 -11 6 14 32 31 33 11 0 9 -5 -5 -19z m30
-27 c3 -8 2 -12 -4 -9 -6 3 -10 10 -10 16 0 14 7 11 14 -7z m6 -28 c0 -2 -7
-7 -16 -10 -8 -3 -12 -2 -9 4 6 10 25 14 25 6z m-1085 -64 c-3 -4 -10 0 -15 8
-8 12 -10 11 -10 -5 -1 -18 -1 -19 -11 -2 -12 21 -2 40 17 33 8 -3 15 0 15 7
1 7 4 1 6 -11 3 -13 2 -27 -2 -30z m-14 -247 c5 4 9 -6 9 -22 -1 -24 -2 -25
-11 -10 -5 9 -16 17 -24 17 -12 0 -13 5 -2 27 11 26 12 26 15 5 2 -12 8 -20
13 -17z m-11 -53 c0 -8 -1 -13 -3 -11 -1 2 -9 12 -16 22 -12 15 -12 17 3 11 9
-3 16 -13 16 -22z m-37 -22 c-3 -11 -7 -20 -9 -20 -2 0 -4 9 -4 20 0 11 4 20
9 20 5 0 7 -9 4 -20z"/>
<path d="M12160 14349 c0 -5 9 -9 20 -9 11 0 20 2 20 4 0 2 -9 6 -20 9 -11 3
-20 1 -20 -4z"/>
<path d="M12348 14353 c7 -3 16 -2 19 1 4 3 -2 6 -13 5 -11 0 -14 -3 -6 -6z"/>
<path d="M12110 14289 c0 -5 9 -9 20 -9 11 0 20 2 20 4 0 2 -9 6 -20 9 -11 3
-20 1 -20 -4z"/>
<path d="M11822 14320 c-15 -25 -15 -30 0 -30 6 0 8 3 5 7 -4 3 -2 12 5 20 6
7 9 15 7 18 -3 2 -10 -5 -17 -15z"/>
<path d="M10740 13989 c0 -5 5 -7 10 -4 6 3 10 8 10 11 0 2 -4 4 -10 4 -5 0
-10 -5 -10 -11z"/>
<path d="M10597 13916 c-10 -8 -14 -17 -9 -20 5 -3 17 3 27 14 21 23 9 26 -18
6z"/>
<path d="M12320 13208 c0 -4 7 -8 15 -8 8 0 15 4 15 8 0 5 -7 9 -15 9 -8 0
-15 -4 -15 -9z"/>
<path d="M12200 13170 c-11 -7 -3 -9 27 -7 24 1 43 5 43 10 0 10 -52 8 -70 -3z"/>
<path d="M9525 12890 c-3 -5 -1 -10 4 -10 6 0 11 5 11 10 0 6 -2 10 -4 10 -3
0 -8 -4 -11 -10z"/>
<path d="M4970 13840 l0 -530 75 0 75 0 0 -2180 0 -2180 -75 0 -75 0 0 -530 0
-530 2275 0 2275 0 0 530 0 530 -1602 2 -1603 3 -3 908 -2 907 1005 0 c797 0
1005 3 1006 13 0 6 0 208 0 447 l1 435 -1006 3 -1006 2 0 820 0 820 1418 2
1417 3 3 528 2 527 -2090 0 -2090 0 0 -530z m438 313 l3 -103 -166 0 -165 0 0
98 c0 54 3 102 7 106 4 3 77 5 162 4 l156 -3 3 -102z m242 -3023 l0 -3131 -62
3 -63 3 -3 3115 c-1 1713 0 3120 2 3127 4 9 26 13 66 13 l60 0 0 -3130z m245
0 l0 -3125 -62 -3 -63 -3 0 3125 c0 2967 1 3125 18 3129 9 3 37 4 62 4 l45 -2
0 -3125z m3140 3120 c4 -6 4 -54 0 -105 l-7 -95 -1509 0 -1509 0 0 98 c0 54 3
102 7 105 11 12 3011 8 3018 -3z m-107 -320 l102 0 0 -95 0 -95 -1507 2 -1508
3 -3 84 c-2 46 0 91 3 99 5 13 179 14 1408 9 771 -4 1448 -7 1505 -7z m-3518
-95 l0 -95 -165 0 -165 0 0 95 0 95 165 0 165 0 0 -95z m0 -2703 l0 -2499
-162 4 -163 3 -3 100 -3 100 80 0 79 0 -1 2288 -2 2287 -75 5 -75 5 -3 89 c-2
49 -1 95 2 103 4 10 42 13 166 13 l160 0 0 -2498z m3620 2393 l0 -105 -1507 2
-1508 3 -3 103 -3 102 1511 0 1510 0 0 -105z m-2835 -1035 l0 -815 -92 -3 -93
-3 0 821 0 821 93 -3 92 -3 0 -815z m1735 -1015 l0 -85 -935 -2 c-514 -1 -945
-2 -957 -2 -22 -1 -23 4 -26 73 -2 41 -1 80 2 88 4 11 170 13 961 13 l955 0 0
-85z m280 -260 l0 -336 -81 3 -81 3 -5 333 -5 332 86 0 86 0 0 -335z m-280 5
l0 -50 -960 0 -960 0 0 43 c0 24 3 47 7 50 3 4 435 7 960 7 l953 0 0 -50z
m-427 -167 l427 -6 0 -84 0 -83 -960 0 -960 0 0 83 c0 46 3 87 7 91 9 8 871 8
1486 -1z m-1303 -1193 l0 -911 -92 3 -93 3 -3 908 -2 907 95 0 95 0 0 -910z
m2888 -1122 l-3 -103 -1095 -3 c-602 -2 -1294 0 -1537 4 l-443 6 0 99 0 99
1540 0 1541 0 -3 -102z m320 -315 l-3 -418 -100 0 -100 0 -3 418 -2 417 105 0
105 0 -2 -417z m-3998 -4 l0 -101 -162 6 -163 6 -3 95 -3 95 166 0 165 0 0
-101z m3680 6 l0 -94 -1282 -3 c-706 -2 -1399 -2 -1540 0 l-258 3 0 94 0 95
1540 0 1540 0 0 -95z m-3680 -320 l0 -105 -162 2 -163 3 -3 103 -3 102 166 0
165 0 0 -105z m3678 3 l-3 -103 -1537 -3 -1538 -2 0 105 0 105 1540 0 1541 0
-3 -102z"/>
<path d="M15930 13955 l0 -335 338 0 338 0 0 335 -1 335 -337 0 -338 0 0 -335z
m182 208 c-10 -4 -10 -8 -2 -18 9 -11 7 -19 -8 -35 -20 -22 -20 -22 -31 -2 -6
12 -11 30 -11 41 0 17 6 21 33 20 17 0 26 -3 19 -6z m171 0 c-7 -2 -19 -2 -25
0 -7 3 -2 5 12 5 14 0 19 -2 13 -5z m196 -40 c0 -27 -3 -42 -6 -35 -9 22 -20
12 -17 -15 4 -26 3 -25 -9 5 -9 23 -15 30 -23 22 -8 -8 -14 -7 -22 2 -9 11 -6
14 10 15 12 1 26 7 32 14 8 9 8 10 -2 4 -8 -4 -18 -1 -25 8 -7 9 -23 18 -37
20 -14 2 3 5 38 6 l62 1 -1 -47z m-380 -320 c-4 -23 4 -30 26 -28 14 2 23 0
21 -4 -9 -14 -61 -6 -62 9 0 16 5 30 12 30 2 0 3 -3 3 -7z m30 -59 c2 -2 -12
-4 -32 -4 -20 0 -37 4 -37 9 0 9 60 4 69 -5z"/>
<path d="M10462 13876 c-34 -25 -39 -33 -26 -44 4 -4 4 -1 0 6 -6 11 5 17 27
13 4 0 7 3 7 8 0 5 11 12 25 15 14 4 23 11 20 16 -9 14 -16 12 -53 -14z"/>
<path d="M10372 13816 c-46 -33 -47 -34 -19 -32 15 0 23 6 20 14 -4 8 1 10 13
6 11 -4 16 -4 12 1 -4 4 -3 14 3 22 16 18 9 16 -29 -11z"/>
<path d="M13955 13768 l-50 -53 53 50 c28 27 52 51 52 52 0 8 -9 -1 -55 -49z"/>
<path d="M10463 13794 c0 -16 6 -17 25 -5 11 6 9 9 -5 13 -12 3 -20 0 -20 -8z"/>
<path d="M13873 13651 c-34 -70 -132 -216 -143 -214 -5 2 -6 -5 -3 -14 4 -11
3 -14 -6 -9 -6 4 -10 4 -9 -1 4 -13 -24 -73 -31 -68 -4 2 -8 -1 -8 -8 0 -16
-33 -67 -42 -67 -4 0 -8 -6 -8 -12 0 -11 -45 -86 -137 -225 -11 -17 -23 -30
-27 -27 -4 2 -13 -4 -20 -14 -13 -15 -12 -16 4 -3 19 15 24 2 5 -17 -18 -18
-28 -15 -28 10 0 12 -3 18 -7 15 -8 -9 -33 12 -33 27 0 6 5 4 10 -4 7 -11 8
-6 4 17 -5 24 0 43 20 78 15 25 25 45 22 45 -3 0 -23 -30 -45 -67 -22 -38 -51
-84 -63 -102 -12 -19 -17 -32 -11 -28 6 4 14 3 18 -3 3 -5 -2 -10 -13 -10 -19
0 -68 -63 -67 -87 0 -6 32 -34 70 -63 39 -28 56 -38 39 -22 -16 15 -28 35 -26
43 3 12 2 12 -6 0 -8 -12 -16 -9 -42 17 -30 31 -31 32 -13 58 15 24 18 25 24
8 7 -17 8 -17 8 -2 1 10 7 16 14 14 6 -1 9 -1 5 1 -19 11 -6 23 12 13 18 -10
20 -9 15 12 -3 13 -1 37 5 53 9 27 9 26 4 -11 -4 -29 -1 -44 10 -53 9 -7 13
-17 10 -22 -3 -5 -1 -9 5 -9 5 0 11 6 14 13 2 6 3 3 1 -8 -3 -16 14 -34 66
-73 39 -29 69 -58 67 -64 -1 -7 3 -12 8 -13 16 -1 75 -47 70 -55 -3 -4 5 -16
18 -26 21 -19 21 -19 8 1 -8 11 -2 7 13 -8 21 -22 26 -34 22 -53 -4 -15 -3
-23 3 -20 14 9 23 -26 10 -38 -9 -8 -10 -8 -5 1 9 16 -7 24 -24 12 -9 -5 -10
-9 -4 -9 7 0 15 -7 18 -16 3 -8 2 -13 -3 -10 -5 3 -11 -1 -14 -9 -6 -14 78
-125 95 -125 5 0 48 28 96 63 48 35 133 96 190 136 56 40 102 75 102 77 0 2
-10 2 -23 -1 -18 -5 -26 -1 -35 20 -14 31 -15 46 -2 25 8 -12 10 -12 10 5 0
16 2 17 9 5 6 -8 8 -17 5 -21 -2 -4 3 -10 12 -13 8 -3 12 -2 9 3 -3 5 -1 12 5
16 6 4 8 11 4 16 -3 6 3 5 14 -2 12 -7 18 -18 14 -24 -3 -5 2 -3 13 5 10 8 20
13 23 11 5 -5 137 88 346 243 82 60 143 112 136 114 -7 3 -18 -2 -25 -11 -7
-10 -16 -12 -27 -6 -12 7 -15 4 -14 -8 0 -10 -5 -18 -11 -19 -7 -1 -18 -2 -24
-3 -8 -1 -8 -5 1 -16 10 -12 8 -14 -9 -10 -14 3 -19 0 -15 -7 5 -7 1 -9 -9 -5
-12 5 -17 1 -17 -13 0 -10 -4 -22 -10 -25 -6 -4 -9 7 -7 27 1 18 7 33 12 33
21 0 36 18 32 37 -3 11 0 21 9 25 8 3 14 9 14 15 0 5 -5 6 -12 2 -7 -4 -8 -3
-4 5 10 15 26 4 26 -17 1 -12 5 -10 14 8 8 14 13 27 11 31 -2 3 1 6 8 7 7 0
23 4 36 8 19 5 22 4 16 -6 -5 -9 -4 -11 4 -6 6 4 9 12 6 17 -9 13 7 11 28 -5
20 -15 23 -28 4 -20 -8 3 -13 -3 -13 -15 0 -17 7 -15 52 17 29 20 51 38 49 40
-2 3 -17 -5 -33 -17 l-30 -21 -16 25 c-15 23 -17 23 -51 9 -19 -8 -35 -12 -35
-9 0 7 50 27 75 29 11 1 19 7 18 13 -1 6 4 14 12 16 10 4 12 -1 9 -21 -3 -23
-2 -24 7 -9 5 9 15 14 21 11 7 -4 -1 9 -17 28 -27 34 -30 35 -52 21 -12 -8
-20 -20 -16 -26 3 -6 1 -7 -5 -3 -6 4 -31 -13 -56 -36 -24 -24 -46 -43 -48
-43 -8 0 -57 -43 -53 -46 2 -2 -138 -3 -311 -1 l-314 3 0 297 c0 163 -4 302
-8 308 -4 6 -16 -8 -29 -35z m671 -606 c3 -8 1 -15 -4 -15 -6 0 -10 7 -10 15
0 8 2 15 4 15 2 0 6 -7 10 -15z m-79 -14 c-3 -5 3 -12 13 -16 22 -6 22 -53 1
-65 -6 -4 -9 -13 -5 -19 5 -7 1 -9 -9 -5 -9 4 -22 -1 -31 -12 -10 -13 -13 -14
-11 -4 2 8 2 12 0 8 -9 -16 -33 6 -33 31 0 20 -2 23 -10 11 -8 -12 -10 -12
-10 -1 0 9 -4 10 -13 5 -7 -5 -1 1 13 13 14 13 30 23 35 22 6 0 4 -3 -2 -6
-23 -9 -14 -25 10 -17 60 18 71 25 58 33 -7 5 -23 6 -35 4 -21 -5 -21 -5 -1
10 22 18 39 22 30 8z m-67 -121 c7 0 12 -7 12 -15 0 -20 -16 -19 -24 1 -3 8
-10 12 -16 9 -17 -10 -11 -25 13 -35 l22 -9 -24 0 c-14 -1 -33 -8 -43 -18 -10
-9 -18 -11 -18 -5 0 6 10 17 22 23 14 8 18 14 11 16 -9 3 -10 10 -3 24 7 13 7
19 0 19 -5 0 -10 -5 -10 -12 0 -6 -3 -8 -6 -5 -4 4 -1 13 6 22 12 14 15 14 30
0 9 -8 22 -15 28 -15z m-328 -224 c0 -2 -9 -6 -20 -9 -11 -3 -18 -1 -14 4 5 9
34 13 34 5z m-74 -38 c-28 -16 -17 -25 27 -22 23 1 34 0 25 -3 -10 -2 -18 -10
-18 -16 0 -8 -3 -8 -12 1 -9 9 -16 8 -30 -5 -18 -16 -18 -16 -12 2 5 12 4 16
-3 12 -8 -5 -8 1 0 22 7 19 16 27 25 24 12 -5 11 -7 -2 -15z m71 7 c0 -10 -10
-15 -26 -15 -25 1 -25 1 -7 15 25 19 33 19 33 0z m-214 -66 c-5 -18 -3 -20 17
-14 15 5 20 4 16 -4 -4 -6 -2 -11 3 -11 6 0 11 7 11 15 0 19 21 19 46 -1 10
-8 13 -12 5 -8 -10 5 -13 3 -8 -8 4 -12 0 -15 -18 -13 -14 1 -22 -1 -20 -5 4
-6 -39 -50 -50 -50 -2 0 -2 7 2 15 3 10 1 15 -7 13 -7 -2 -15 3 -18 11 -3 8 0
11 7 7 6 -4 11 -3 11 3 0 5 -4 13 -10 16 -14 9 -12 42 3 48 6 3 13 6 14 6 0 1
-1 -9 -4 -20z m102 11 c3 -5 1 -10 -4 -10 -6 0 -11 5 -11 10 0 6 2 10 4 10 3
0 8 -4 11 -10z"/>
<path d="M14445 12970 c3 -5 8 -10 11 -10 2 0 4 5 4 10 0 6 -5 10 -11 10 -5 0
-7 -4 -4 -10z"/>
<path d="M14415 12950 c11 -5 27 -9 35 -9 9 0 8 4 -5 9 -11 5 -27 9 -35 9 -9
0 -8 -4 5 -9z"/>
<path d="M13710 13597 c-7 -12 -19 -31 -26 -42 -12 -18 -11 -21 5 -21 13 0 18
6 15 19 -1 10 6 27 16 37 11 11 16 21 12 24 -5 3 -14 -5 -22 -17z"/>
<path d="M13645 13494 c-9 -15 -12 -23 -6 -20 11 7 35 46 28 46 -3 0 -12 -12
-22 -26z"/>
<path d="M10006 13464 c-8 -20 -8 -24 2 -24 4 0 8 9 9 20 2 24 -3 26 -11 4z"/>
<path d="M13568 13373 c-36 -56 -53 -92 -47 -97 6 -6 13 -6 21 2 7 7 20 12 31
12 10 0 15 5 12 10 -3 6 -1 10 4 10 6 0 11 9 11 21 0 13 -4 18 -12 13 -7 -5
-8 -3 -3 6 6 10 11 9 22 -5 17 -25 17 -14 -1 21 -16 29 -13 44 7 44 7 0 13 11
13 25 1 14 1 25 0 25 -1 0 -27 -39 -58 -87z"/>
<path d="M13490 13248 c-10 -21 -10 -21 3 -6 8 10 18 14 22 10 5 -4 5 -1 1 6
-10 17 -14 15 -26 -10z"/>
<path d="M9669 13152 c-29 -37 -41 -57 -27 -44 14 13 34 25 44 26 11 2 19 11
19 20 0 10 10 26 22 36 18 14 20 19 8 23 -9 4 -32 -17 -66 -61z"/>
<path d="M9731 13181 c-8 -5 -11 -16 -8 -25 7 -18 23 -21 32 -6 3 6 -1 10 -10
10 -9 0 -13 5 -10 10 4 6 11 7 17 4 7 -4 8 -2 4 4 -8 14 -7 14 -25 3z"/>
<path d="M9725 13080 c4 -6 11 -8 16 -5 14 9 11 15 -7 15 -8 0 -12 -5 -9 -10z"/>
<path d="M14580 13050 c-12 -7 -10 -9 7 -7 12 0 19 5 17 9 -6 10 -6 10 -24 -2z"/>
<path d="M9624 13011 c4 -5 0 -12 -6 -14 -8 -3 -6 -6 5 -6 9 -1 17 6 17 14 0
8 -5 15 -11 15 -5 0 -8 -4 -5 -9z"/>
<path d="M13350 12884 c0 -8 5 -12 10 -9 6 4 8 11 5 16 -9 14 -15 11 -15 -7z"/>
<path d="M13456 12695 c32 -30 62 -54 66 -55 4 0 -19 25 -52 55 -33 30 -63 55
-67 55 -3 0 20 -25 53 -55z"/>
<path d="M9317 12605 c-4 -8 -3 -16 1 -19 4 -3 9 4 9 15 2 23 -3 25 -10 4z"/>
<path d="M13590 12578 c41 -45 50 -53 50 -45 0 2 -21 23 -47 47 l-48 45 45
-47z"/>
<path d="M9322 12508 c5 -15 28 -18 29 -3 0 6 -7 12 -17 13 -10 3 -15 -1 -12
-10z"/>
<path d="M9180 12110 c0 -5 5 -10 11 -10 5 0 7 5 4 10 -3 6 -8 10 -11 10 -2 0
-4 -4 -4 -10z"/>
<path d="M9101 12064 c0 -11 3 -14 6 -6 3 7 2 16 -1 19 -3 4 -6 -2 -5 -13z"/>
<path d="M9156 11933 c-6 -14 -5 -15 5 -6 7 7 10 15 7 18 -3 3 -9 -2 -12 -12z"/>
<path d="M9116 11921 c-17 -19 -17 -19 0 -17 9 2 18 10 20 19 3 21 1 21 -20
-2z"/>
<path d="M9100 11856 c0 -9 5 -16 10 -16 6 0 10 4 10 9 0 6 -4 13 -10 16 -5 3
-10 -1 -10 -9z"/>
<path d="M9102 11769 c2 -7 10 -15 17 -17 8 -3 12 1 9 9 -2 7 -10 15 -17 17
-8 3 -12 -1 -9 -9z"/>
<path d="M9024 11405 c-3 -8 -3 -19 1 -26 4 -6 1 -15 -6 -20 -11 -7 -9 -9 6
-9 14 0 21 7 21 19 0 11 -5 17 -10 14 -5 -4 -7 3 -4 15 7 25 0 30 -8 7z"/>
<path d="M8991 11394 c0 -11 3 -14 6 -6 3 7 2 16 -1 19 -3 4 -6 -2 -5 -13z"/>
<path d="M9066 11375 c-3 -8 -1 -15 4 -15 6 0 10 7 10 15 0 8 -2 15 -4 15 -2
0 -6 -7 -10 -15z"/>
<path d="M9014 11304 c3 -9 6 -20 6 -26 0 -6 6 -6 15 2 22 18 18 40 -6 40 -15
0 -19 -4 -15 -16z"/>
<path d="M10380 10275 c-14 -8 -41 -20 -60 -26 -36 -12 -568 -248 -809 -358
-128 -59 -184 -90 -168 -92 4 -1 12 -3 17 -4 6 -1 14 -3 18 -4 5 0 14 -13 21
-28 l12 -28 -20 25 c-16 21 -22 23 -33 12 -11 -11 -9 -12 7 -6 l20 7 -20 -22
c-17 -19 -21 -20 -23 -7 -2 9 -8 16 -13 16 -12 0 -12 -3 6 -36 8 -16 15 -23
15 -16 0 7 5 10 12 6 7 -4 8 -3 4 4 -4 7 -2 12 3 12 12 0 15 -13 11 -45 -2
-16 0 -17 13 -6 9 7 14 18 11 26 -3 7 0 16 7 21 8 4 10 3 5 -4 -4 -7 -2 -12 4
-12 7 0 9 -7 6 -16 -3 -8 -2 -12 4 -9 10 6 13 -5 12 -42 -1 -14 7 -24 19 -28
10 -4 24 -16 30 -28 9 -20 9 -21 -4 -4 -12 15 -16 15 -20 3 -3 -8 -1 -17 6
-20 7 -2 4 -5 -5 -5 -10 -1 -26 9 -38 21 -11 12 -23 18 -27 13 -5 -4 -3 -10 4
-12 10 -4 10 -7 0 -18 -9 -10 -15 -10 -26 -1 -16 12 33 -81 62 -117 15 -19 16
-20 10 -2 -4 11 -13 26 -20 33 -16 16 -17 32 -2 32 5 0 8 4 4 9 -3 5 0 13 6
17 8 4 9 3 5 -4 -4 -7 -2 -12 4 -12 6 0 13 7 16 15 5 13 9 12 24 -5 13 -15 20
-17 25 -9 6 8 10 8 15 -2 5 -7 2 -18 -6 -26 -17 -17 -18 -33 -3 -33 5 0 8 -4
5 -8 -3 -5 1 -9 9 -9 10 0 11 5 4 18 -6 11 -6 20 0 24 13 7 62 -65 54 -79 -3
-6 -2 -8 2 -3 9 8 66 -73 59 -84 -2 -4 1 -11 7 -15 8 -5 10 -2 5 7 -10 18 31
-31 44 -52 6 -11 5 -16 -3 -16 -7 0 -23 -3 -36 -7 -16 -6 -21 -5 -17 3 9 14 0
14 -26 0 -16 -9 -25 -6 -46 13 -14 12 3 -14 37 -59 35 -46 68 -80 74 -76 5 3
7 1 4 -4 -4 -6 13 -33 38 -60 31 -34 44 -43 45 -30 0 15 3 15 20 5 23 -15 27
-33 6 -25 -8 3 -17 3 -20 0 -9 -10 15 -33 27 -26 5 3 7 1 4 -4 -9 -14 260
-276 275 -267 6 4 8 3 5 -3 -6 -10 97 -97 108 -91 4 1 11 -5 16 -14 13 -23 95
-79 103 -71 3 4 6 1 6 -5 0 -6 27 -30 61 -52 48 -33 63 -39 74 -30 8 7 12 16
9 21 -3 5 2 6 10 3 9 -3 16 -1 16 5 0 6 -4 11 -8 11 -5 0 -9 7 -9 15 0 21 14
9 25 -24 9 -25 8 -28 -7 -24 -10 2 -23 -2 -30 -10 -12 -15 -10 -17 220 -145
115 -65 343 -161 504 -213 370 -121 695 -166 1120 -156 401 10 731 71 1080
202 139 52 176 70 164 82 -6 6 -5 10 6 10 8 0 15 -4 15 -8 0 -5 7 -6 15 -3 8
4 13 10 10 14 -3 4 2 13 10 20 13 11 14 10 8 -5 -5 -15 -3 -17 11 -12 10 4 20
7 22 7 3 0 2 5 -2 12 -4 6 -3 8 4 4 12 -7 83 24 77 34 -3 4 -16 5 -30 3 -13
-3 -22 -9 -19 -14 3 -5 -2 -6 -10 -3 -19 7 -22 35 -4 31 16 -3 19 44 4 62 -9
12 -8 12 14 0 48 -27 62 -42 48 -51 -10 -6 -10 -10 2 -18 11 -7 41 5 110 42
97 52 320 195 287 184 -12 -4 -20 2 -27 19 -5 14 -15 25 -22 25 -9 0 -9 -3 -2
-8 21 -14 22 -38 2 -51 -17 -10 -22 -9 -34 6 -13 17 -14 16 -8 -9 4 -18 2 -28
-6 -28 -6 0 -8 5 -4 11 3 6 0 15 -7 20 -12 8 -12 11 1 19 8 5 26 10 40 10 19
0 22 2 10 9 -8 6 -18 7 -22 5 -4 -3 -16 0 -25 6 -17 11 -17 11 1 6 10 -4 25
-1 32 5 8 6 23 9 34 6 11 -3 20 -1 20 4 0 5 -5 9 -12 9 -6 0 -9 3 -5 6 3 3 19
-2 36 -12 21 -12 27 -21 19 -25 -7 -5 -9 -11 -6 -15 10 -9 44 14 158 105 131
105 221 191 213 204 -3 5 -2 7 4 4 5 -3 36 20 68 53 53 53 57 61 44 77 -13 16
-12 17 2 5 14 -11 25 -3 76 51 67 72 99 116 99 134 -1 17 -394 285 -407 277
-7 -4 -6 -10 1 -19 8 -10 7 -15 -2 -19 -7 -3 -3 -3 8 -1 16 4 23 0 27 -14 3
-15 1 -18 -11 -14 -10 4 -13 2 -8 -5 4 -7 3 -12 -3 -12 -5 0 -17 -3 -27 -7
-12 -5 -15 -3 -9 6 5 10 2 11 -13 7 -15 -5 -27 -1 -39 13 -10 12 -24 21 -31
21 -12 0 -12 3 -2 15 7 9 10 18 6 22 -3 3 -6 0 -6 -8 0 -12 -2 -11 -10 1 -5 8
-16 15 -24 15 -9 0 -16 3 -16 8 0 4 2 6 5 5 2 -2 12 7 20 19 15 21 17 21 34 5
10 -9 16 -21 13 -26 -2 -4 4 -5 15 -2 14 4 23 0 29 -13 9 -18 10 -18 27 -1 17
16 16 18 -23 44 -22 15 -46 24 -52 20 -6 -4 -8 -3 -4 4 8 13 -50 56 -64 47 -6
-4 -8 -15 -5 -25 4 -12 -1 -19 -16 -23 -11 -3 -18 -10 -14 -16 3 -6 1 -11 -5
-11 -7 0 -10 7 -6 15 3 9 0 15 -9 15 -8 0 -15 4 -15 9 0 5 -7 12 -16 15 -8 3
-13 2 -10 -3 3 -5 -5 -8 -19 -7 -14 0 -25 5 -25 9 0 5 -5 5 -12 1 -7 -4 -8 -3
-4 5 4 6 13 8 19 4 8 -5 8 -2 0 9 -7 8 -10 18 -6 22 4 4 -1 4 -12 0 -14 -6
-17 -4 -12 9 4 12 2 14 -11 10 -15 -6 -15 -4 -4 9 14 17 49 12 95 -13 10 -5
22 -7 26 -4 5 3 7 -4 4 -16 -6 -20 -4 -20 18 -8 21 11 22 10 12 -3 -7 -8 -10
-18 -6 -21 3 -4 -2 -7 -13 -7 -15 0 -16 -2 -4 -9 17 -11 33 -4 27 12 -2 7 3
17 10 22 11 9 -28 40 -179 141 -217 147 -233 157 -198 122 14 -14 27 -24 30
-22 3 1 14 -10 25 -26 11 -16 36 -37 57 -46 21 -9 38 -21 38 -26 0 -4 7 -8 17
-8 13 0 12 -4 -6 -19 -13 -11 -20 -25 -16 -31 4 -7 -1 -6 -14 2 -17 10 -20 19
-15 42 l6 28 -22 -22 c-15 -15 -25 -18 -34 -11 -6 6 -21 8 -33 5 -11 -3 -24 0
-28 7 -6 8 -4 10 5 4 8 -5 11 -4 6 3 -4 6 -13 9 -21 6 -8 -4 -17 0 -20 8 -9
23 -47 19 -67 -8 -11 -13 -24 -21 -30 -18 -6 4 -8 2 -5 -3 4 -6 -1 -17 -10
-24 -9 -8 -17 -12 -19 -9 -1 3 -6 1 -11 -4 -5 -6 -2 -6 7 -1 9 5 7 0 -5 -14
l-20 -23 -17 22 c-20 25 -15 42 10 33 14 -5 15 -3 5 7 -10 11 -16 11 -30 -2
-10 -8 -24 -13 -32 -10 -8 3 -11 0 -7 -7 4 -6 2 -11 -3 -11 -14 0 -14 17 -1
25 6 4 8 10 5 15 -6 10 23 22 36 15 5 -4 6 1 2 10 -4 12 14 36 59 80 65 63 91
77 116 62 23 -15 12 3 -12 18 -24 16 -26 15 -167 -127 -78 -79 -142 -146 -141
-151 1 -4 -2 -6 -7 -5 -14 5 -131 -84 -124 -95 3 -6 1 -7 -5 -3 -10 6 -97 -43
-89 -50 6 -6 57 20 57 29 0 5 5 5 10 2 6 -4 7 -11 4 -17 -4 -7 -2 -8 5 -4 6 4
9 11 6 16 -3 4 10 15 29 24 40 19 55 21 38 4 -7 -7 -12 -19 -12 -28 0 -12 2
-12 9 -2 6 11 10 10 15 -3 3 -10 2 -23 -4 -30 -5 -6 -6 -16 -2 -20 4 -5 1 -5
-5 -1 -7 4 -13 3 -13 -3 0 -6 -6 -8 -14 -5 -9 3 -22 -5 -32 -21 -9 -14 -19
-23 -22 -21 -2 3 -18 -2 -35 -10 -22 -12 -31 -13 -37 -4 -5 8 -9 7 -13 -4 -4
-9 -13 -13 -22 -10 -17 7 -20 -6 -5 -24 7 -8 7 -9 -1 -3 -14 12 -46 3 -53 -15
-8 -20 -26 -17 -21 4 3 9 -2 2 -10 -16 -13 -27 -20 -32 -41 -28 -23 4 -24 3
-13 -12 8 -9 10 -14 5 -10 -5 4 -15 0 -23 -8 -8 -8 -19 -12 -24 -9 -5 4 -9 2
-9 -4 0 -8 -46 -24 -75 -26 -5 0 -15 -4 -22 -8 -6 -4 -14 -3 -18 3 -4 6 -11 8
-16 4 -5 -3 -6 -10 -3 -16 4 -7 0 -7 -13 0 -14 8 -26 7 -44 -2 -14 -7 -37 -12
-51 -12 -15 1 -24 -2 -22 -6 9 -13 -48 -21 -68 -9 -10 6 -18 8 -18 3 0 -4 -16
-6 -36 -4 -24 3 -34 1 -30 -6 3 -6 1 -14 -5 -18 -8 -4 -9 -3 -5 4 5 8 -5 12
-31 12 -30 0 -35 -3 -23 -11 13 -9 13 -10 0 -6 -26 7 -17 32 12 32 14 -1 24 4
21 9 -4 5 1 7 10 3 10 -3 17 -2 17 2 0 5 -6 12 -12 14 -7 3 1 5 17 5 17 0 24
-2 18 -5 -19 -7 -16 -20 4 -20 10 0 29 11 43 24 14 13 31 21 38 18 7 -3 23 1
35 9 30 18 81 30 72 16 -8 -13 -3 -13 29 4 22 11 24 15 12 25 -11 9 -33 6
-100 -13 -224 -65 -526 -91 -764 -66 -264 29 -465 87 -696 201 -66 33 -122 56
-125 53 -3 -3 2 -11 12 -19 14 -10 15 -14 3 -24 -10 -9 -16 -8 -26 4 -14 17
-40 20 -40 4 0 -5 5 -7 12 -3 6 4 17 -1 24 -10 10 -14 16 -15 33 -6 14 7 21 7
21 0 0 -5 -4 -10 -10 -10 -5 0 -7 -7 -4 -15 4 -8 1 -15 -6 -15 -6 0 -8 -4 -5
-10 3 -5 1 -10 -5 -10 -7 0 -10 7 -6 15 7 18 -29 39 -52 30 -9 -3 -13 -3 -9 1
3 4 -6 17 -20 30 -23 20 -25 26 -14 36 11 10 14 10 18 1 6 -18 60 -16 66 1 4
10 -7 23 -31 37 -85 52 -234 171 -335 268 -164 159 -289 323 -374 494 -38 75
-38 75 -63 62z m-31 -91 c4 3 7 -4 7 -15 0 -19 -1 -19 -13 -3 -7 10 -13 23
-12 28 0 6 3 5 6 -2 2 -6 8 -10 12 -8z m34 -45 c-14 -14 -6 -39 10 -35 7 1 9
1 5 -1 -4 -2 -4 -11 -1 -19 9 -25 -6 -15 -21 15 -11 21 -12 31 -3 40 6 6 13
11 16 11 3 0 0 -5 -6 -11z m62 -37 c-3 -3 -11 0 -18 7 -9 10 -8 11 6 5 10 -3
15 -9 12 -12z m48 -21 c9 -15 14 -31 10 -35 -3 -3 -1 -6 5 -6 7 0 21 -9 32
-20 11 -11 15 -20 8 -20 -6 0 -4 -6 7 -13 13 -10 15 -16 6 -21 -6 -4 -8 -12
-5 -18 4 -7 2 -8 -5 -4 -6 4 -9 11 -6 16 7 11 -12 23 -25 15 -5 -3 0 -15 11
-26 11 -11 17 -24 14 -29 -3 -4 1 -11 7 -13 9 -4 9 -6 1 -6 -6 -1 -19 6 -27
15 -14 13 -16 13 -16 1 0 -9 6 -18 13 -20 7 -3 8 -6 1 -6 -11 -1 -88 102 -101
135 -5 14 -2 16 15 12 14 -4 19 -2 16 7 -3 6 2 18 11 25 12 10 13 16 4 26 -6
8 -7 14 -2 14 5 0 16 -13 26 -29z m-42 -1 c-7 -4 -13 -11 -14 -16 -1 -5 -11
-10 -22 -11 -15 -2 -16 -1 -6 6 7 5 11 13 8 17 -3 5 6 10 20 11 16 0 21 -2 14
-7z m100 -222 c11 -21 11 -22 -4 -9 -10 7 -17 17 -17 22 0 15 9 10 21 -13z
m3051 -240 c-11 -11 -32 -3 -32 12 0 4 9 6 21 3 13 -4 17 -9 11 -15z m468 3
c0 -5 -7 -11 -14 -14 -10 -4 -13 -1 -9 9 6 15 23 19 23 5z m-513 -8 c-4 -3 -2
-12 4 -20 8 -9 8 -13 1 -13 -6 0 -14 5 -17 10 -6 10 2 30 12 30 4 0 3 -3 0 -7z
m72 -26 c0 -9 -2 -8 -6 1 -2 6 -10 9 -15 6 -7 -4 -8 -2 -4 5 9 13 26 5 25 -12z
m-84 -17 c3 -5 1 -10 -4 -10 -6 0 -11 5 -11 10 0 6 2 10 4 10 3 0 8 -4 11 -10z
m-25 -8 c0 -5 -9 -17 -21 -28 -17 -15 -18 -20 -6 -29 18 -13 18 -42 0 -42 -8
0 -12 6 -9 13 3 7 -2 15 -11 18 -21 9 -28 0 -15 -17 7 -8 9 -17 5 -20 -13 -14
-23 -6 -23 18 0 13 -8 29 -17 34 -18 10 -16 12 10 15 6 0 12 6 12 13 0 6 4 15
9 20 5 5 6 3 2 -4 -4 -7 -2 -13 4 -13 6 0 8 -6 4 -12 -4 -8 -3 -10 2 -5 5 5 9
12 9 15 1 24 45 47 45 24z m9 -45 c0 -8 -2 -8 -6 1 -4 10 -8 10 -21 0 -15 -12
-16 -11 -3 4 14 19 32 15 30 -5z m741 -17 c0 -5 -8 -14 -18 -19 -14 -7 -19 -6
-19 4 0 8 4 12 8 9 4 -2 10 0 14 6 8 13 15 13 15 0z m-3259 -10 c6 0 7 -5 3
-11 -4 -8 0 -9 15 -4 16 5 21 2 21 -12 0 -11 -3 -14 -8 -7 -4 6 -16 8 -26 4
-18 -6 -18 -7 5 -14 13 -5 29 -8 36 -7 6 1 14 -2 17 -7 7 -12 -36 -7 -63 7
-12 7 -19 16 -16 20 3 5 -2 11 -10 15 -8 3 -15 10 -15 17 0 6 7 8 16 5 9 -3
20 -6 25 -6z m-47 -30 c7 0 13 -7 13 -15 0 -13 -3 -13 -19 2 -10 9 -18 21 -17
27 0 6 3 6 6 -1 2 -7 10 -13 17 -13z m153 -16 c-3 -3 -12 -4 -19 -1 -8 3 -5 6
6 6 11 1 17 -2 13 -5z m-37 -43 c0 -3 -4 -13 -10 -21 -8 -12 -10 -12 -16 3 -3
9 -10 14 -15 11 -5 -3 -9 -1 -9 4 0 5 11 10 25 10 14 0 25 -3 25 -7z m3424
-34 c4 4 4 0 0 -10 -10 -28 -35 -16 -40 21 -2 10 2 10 15 -2 10 -9 21 -13 25
-9z m-3404 -7 c0 -5 -2 -10 -4 -10 -3 0 -8 5 -11 10 -3 6 -1 10 4 10 6 0 11
-4 11 -10z m165 -10 c-3 -5 -12 -10 -18 -10 -7 0 -6 4 3 10 19 12 23 12 15 0z
m3177 -13 c-12 -7 -19 -17 -15 -22 4 -4 3 -5 -4 -1 -18 10 -4 36 21 36 21 -1
21 -1 -2 -13z m81 -2 c-3 -9 -2 -15 3 -14 19 3 32 -2 53 -20 16 -14 18 -21 9
-25 -7 -3 -1 -4 15 -1 16 3 27 1 27 -5 0 -6 4 -9 8 -6 13 8 11 -28 -2 -36 -7
-5 -4 -8 7 -8 9 0 17 6 17 14 0 8 7 16 15 20 17 6 20 -5 6 -19 -6 -6 -1 -14
14 -22 18 -8 27 -8 32 -1 4 7 1 8 -7 3 -9 -6 -11 -4 -5 5 6 10 11 10 20 -3 7
-10 18 -17 26 -17 17 -1 57 -30 41 -30 -7 0 -11 -6 -9 -12 1 -7 -4 -12 -10
-10 -7 1 -13 -2 -13 -8 0 -5 6 -10 13 -10 6 -1 1 -10 -12 -21 l-25 -20 -13 23
-13 23 3 -24 c1 -19 -5 -27 -30 -37 -30 -13 -32 -12 -30 6 1 12 7 18 14 16 7
-3 13 -1 13 5 0 6 5 7 12 3 7 -4 8 -3 4 5 -4 6 -13 11 -19 10 -27 -3 -34 2
-31 27 1 14 0 23 -3 20 -11 -11 -45 33 -39 51 5 16 4 16 -9 -1 -8 -11 -15 -14
-15 -8 0 7 -8 12 -17 12 -10 0 -31 9 -48 20 -20 14 -25 20 -13 20 9 0 20 -4
23 -10 3 -5 12 -10 18 -9 9 0 9 2 0 5 -7 3 -11 11 -9 17 1 7 1 9 -1 5 -3 -4
-19 2 -38 12 -18 10 -36 16 -39 13 -3 -4 -6 -1 -6 6 0 7 -4 10 -8 7 -5 -3 -9
1 -9 9 0 17 11 19 37 5 14 -7 19 -5 23 10 3 11 10 20 16 20 6 0 8 -7 4 -15z
m-3248 -15 c3 -6 -1 -7 -9 -4 -18 7 -21 14 -7 14 6 0 13 -4 16 -10z m31 -7
c-2 -10 -11 -19 -22 -20 -10 -2 -13 0 -6 3 6 3 12 12 12 20 0 8 4 14 9 14 5 0
8 -8 7 -17z m-52 -18 c-7 -16 -24 -21 -24 -6 0 8 7 13 27 20 1 1 0 -6 -3 -14z
m113 9 c-3 -3 -12 -4 -19 -1 -8 3 -5 6 6 6 11 1 17 -2 13 -5z m18 -23 c3 -5 0
-13 -6 -17 -7 -4 -9 -3 -5 4 3 6 -3 12 -16 15 -23 4 -23 4 -1 6 12 0 24 -3 28
-8z m-110 -11 c-3 -5 -1 -10 4 -10 6 0 11 4 11 9 0 16 35 5 38 -12 4 -19 -14
-31 -24 -16 -4 8 -3 9 4 5 7 -4 12 -1 12 9 0 13 -4 14 -20 5 -22 -12 -44 -5
-35 11 4 5 8 9 11 9 3 0 2 -4 -1 -10z m126 -13 c-10 -9 -11 -8 -5 6 3 10 9 15
12 12 3 -3 0 -11 -7 -18z m34 13 c3 -5 1 -10 -4 -10 -6 0 -11 5 -11 10 0 6 2
10 4 10 3 0 8 -4 11 -10z m30 -31 c-4 -5 -12 -9 -18 -8 -9 0 -8 2 1 6 6 2 9
10 6 15 -4 7 -2 8 5 4 6 -4 9 -12 6 -17z m-43 4 c-6 -2 -10 -9 -6 -14 3 -5 0
-9 -5 -9 -12 0 -14 13 -4 23 3 4 11 7 17 6 6 0 5 -3 -2 -6z m118 -9 c-6 -6 -7
-14 -3 -17 3 -4 2 -7 -4 -7 -6 0 -13 8 -15 18 -4 12 1 18 13 18 12 0 15 -4 9
-12z m-1811 -29 c11 3 25 -3 37 -17 14 -17 15 -19 2 -9 -15 11 -18 10 -24 -13
-7 -27 -18 -33 -30 -15 -3 6 -17 9 -30 6 -13 -2 -29 2 -35 9 -6 8 -8 14 -4 14
5 0 -3 10 -16 22 -20 18 -21 20 -4 13 45 -17 55 -17 61 0 6 16 8 16 16 1 6
-10 17 -15 27 -11z m1646 7 c-3 -3 -11 0 -18 7 -9 10 -8 11 6 5 10 -3 15 -9
12 -12z m102 -8 c-3 -3 -12 -4 -19 -1 -8 3 -5 6 6 6 11 1 17 -2 13 -5z m133
-4 c-18 -12 -30 -13 -30 -2 0 4 10 9 22 9 18 2 20 0 8 -7z m-90 -10 c0 -5 -4
-10 -9 -10 -6 0 -13 5 -16 10 -3 6 1 10 9 10 9 0 16 -4 16 -10z m-1738 -82
c-10 -22 -11 -21 -11 12 -1 26 2 31 11 22 8 -8 8 -17 0 -34z m2024 6 c-4 -9
-9 -15 -11 -12 -3 3 -3 13 1 22 4 9 9 15 11 12 3 -3 3 -13 -1 -22z m-2062 -13
c16 -18 16 -18 -9 -14 -14 3 -25 12 -25 19 0 19 14 17 34 -5z m3043 13 c-3 -3
-12 -4 -19 -1 -8 3 -5 6 6 6 11 1 17 -2 13 -5z m-168 -40 c10 -9 -35 -3 -49 6
-11 8 -7 9 15 4 17 -4 32 -8 34 -10z m-762 0 c-3 -3 -12 -4 -19 -1 -8 3 -5 6
6 6 11 1 17 -2 13 -5z m610 -20 c-3 -3 -12 -4 -19 -1 -8 3 -5 6 6 6 11 1 17
-2 13 -5z m2226 -31 c-7 -18 -37 -33 -49 -25 -12 9 -16 32 -5 32 5 0 12 -6 14
-12 3 -7 6 -3 6 9 1 23 22 36 33 20 3 -6 4 -16 1 -24z m-4853 -8 c0 -14 -2
-25 -4 -25 -2 0 -6 11 -8 25 -3 14 -1 25 3 25 5 0 9 -11 9 -25z m4755 -23 c-3
-3 -11 0 -18 7 -9 10 -8 11 6 5 10 -3 15 -9 12 -12z m-5 -33 c15 -28 5 -23
-15 7 -9 15 -12 23 -6 20 6 -4 16 -16 21 -27z m35 11 c3 -5 2 -10 -4 -10 -5 0
-13 5 -16 10 -3 6 -2 10 4 10 5 0 13 -4 16 -10z m-4750 -14 c7 3 16 1 20 -5 3
-7 0 -8 -9 -5 -11 4 -14 0 -11 -16 4 -18 2 -20 -11 -9 -8 6 -12 14 -9 17 3 3
-1 12 -7 21 -10 13 -10 14 1 4 7 -6 19 -9 26 -7z m4690 -26 c-3 -5 -12 -10
-18 -10 -7 0 -6 4 3 10 19 12 23 12 15 0z m-42 -17 c-3 -7 -6 -13 -8 -13 -2 0
-5 6 -8 13 -3 8 1 14 8 14 7 0 11 -6 8 -14z m-4549 -48 c-8 -13 -12 -30 -8
-37 4 -7 -5 -2 -19 11 -15 13 -24 28 -20 34 3 5 9 4 13 -3 6 -9 11 -8 21 4 22
24 31 19 13 -9z m56 19 c0 -8 -19 -13 -24 -6 -3 5 1 9 9 9 8 0 15 -2 15 -3z
m4477 -2 c8 -5 9 -13 3 -22 -8 -13 -10 -13 -10 2 0 9 -6 19 -12 21 -7 3 -8 6
-3 6 6 0 15 -3 22 -7z m-4501 -59 c-3 -3 -13 0 -22 8 -15 12 -14 14 3 20 17 6
32 -15 19 -28z m4438 12 c-4 -8 -7 -15 -9 -15 -2 0 -5 7 -9 15 -3 9 0 15 9 15
9 0 12 -6 9 -15z m46 5 c0 -5 -5 -10 -11 -10 -5 0 -7 5 -4 10 3 6 8 10 11 10
2 0 4 -4 4 -10z m-4413 -35 c0 -8 -4 -12 -9 -9 -4 3 -8 -2 -8 -10 0 -9 -7 -16
-16 -16 -8 0 -12 -4 -9 -10 11 -17 -1 -11 -23 13 l-21 22 25 1 c21 2 23 0 12
-15 -6 -9 1 -4 17 12 35 32 32 31 32 12z m73 -10 c13 -14 21 -25 18 -25 -2 0
-15 11 -28 25 -13 14 -21 25 -18 25 2 0 15 -11 28 -25z m18 -89 c7 -4 22 -4
35 -1 17 5 19 4 7 -4 -13 -9 -13 -11 3 -11 9 0 17 -4 17 -10 0 -5 -7 -7 -15
-4 -22 9 -18 -14 5 -26 15 -8 20 -8 20 1 0 7 9 9 21 6 12 -3 22 0 26 9 3 8 9
11 15 8 5 -3 4 -12 -3 -20 -16 -19 -3 -30 16 -14 13 11 14 10 8 -6 -6 -16 -5
-17 9 -6 11 9 18 10 23 2 4 -6 1 -9 -6 -8 -18 4 -18 -25 1 -39 8 -7 11 -13 7
-13 -4 0 -19 12 -32 26 l-24 26 -13 -26 c-10 -22 -13 -24 -20 -11 -5 8 -14 15
-21 15 -7 0 -6 -4 3 -10 9 -6 10 -10 3 -10 -7 0 -17 9 -23 20 -6 11 -15 18
-20 15 -5 -3 -12 0 -16 6 -4 8 -3 9 4 5 7 -4 12 -1 12 8 0 9 -7 16 -16 16 -8
0 -12 5 -9 10 3 6 -3 10 -15 10 -14 0 -19 -4 -14 -12 4 -7 -5 -2 -19 11 -15
14 -27 29 -27 36 0 12 39 13 58 1z m102 -11 c11 -13 10 -14 -4 -9 -9 3 -16 10
-16 15 0 13 6 11 20 -6z m3894 -101 c4 -9 4 -19 1 -22 -7 -8 -35 19 -29 29 8
14 21 11 28 -7z m31 6 c-3 -5 -11 -10 -16 -10 -6 0 -7 5 -4 10 3 6 11 10 16
10 6 0 7 -4 4 -10z m-3835 -41 c10 2 9 -3 -5 -14 -17 -14 -18 -16 -2 -11 11 3
16 2 12 -4 -3 -6 -1 -10 4 -10 6 0 11 -4 11 -9 0 -19 -41 3 -46 25 -3 13 -10
21 -15 18 -5 -3 -6 -11 -2 -17 4 -7 -2 -5 -13 3 -29 22 -30 24 -10 16 14 -5
17 -2 12 9 -5 13 -2 14 17 3 12 -7 29 -11 37 -9z m100 -73 c0 -2 -8 -10 -17
-17 -16 -13 -17 -12 -4 4 13 16 21 21 21 13z m100 -20 c0 -2 -7 -7 -16 -10 -8
-3 -12 -2 -9 4 6 10 25 14 25 6z m3470 -15 c0 -4 -6 -8 -13 -8 -8 0 -14 6 -14
13 0 7 6 10 14 7 7 -3 13 -8 13 -12z m-3448 2 c-6 -2 -10 -9 -6 -14 3 -5 -5
-9 -17 -9 -22 0 -22 0 -3 15 10 8 24 14 29 14 6 0 4 -3 -3 -6z m28 -78 c-7 -9
-15 -13 -19 -10 -3 3 1 10 9 15 21 14 24 12 10 -5z m3143 -10 c-3 -9 -8 -14
-10 -11 -3 3 -2 9 2 15 9 16 15 13 8 -4z m-110 -71 c-6 -17 -33 -19 -33 -1 0
7 9 13 19 14 14 1 18 -3 14 -13z m-50 -55 c-6 -20 -33 -14 -33 7 0 8 -5 14
-12 14 -6 0 -3 6 7 14 17 12 21 12 31 -2 6 -8 9 -23 7 -33z m-2710 11 c-3 -12
-8 -19 -11 -16 -5 6 5 36 12 36 2 0 2 -9 -1 -20z m42 10 c3 -6 -1 -7 -9 -4
-18 7 -21 14 -7 14 6 0 13 -4 16 -10z m2589 -21 c-3 -5 -10 -7 -15 -3 -5 3 -7
10 -3 15 3 5 10 7 15 3 5 -3 7 -10 3 -15z m-2549 1 c-3 -5 -12 -10 -18 -10 -7
0 -6 4 3 10 19 12 23 12 15 0z m-35 -4 c0 -2 -9 -6 -20 -9 -11 -3 -18 -1 -14
4 5 9 34 13 34 5z m2610 -17 c0 -11 -4 -18 -10 -14 -5 3 -7 12 -3 20 7 21 13
19 13 -6z m-2610 -3 c0 -3 -4 -8 -10 -11 -5 -3 -10 -1 -10 4 0 6 5 11 10 11 6
0 10 -2 10 -4z m215 -36 c3 -5 1 -10 -4 -10 -6 0 -11 5 -11 10 0 6 2 10 4 10
3 0 8 -4 11 -10z m-25 -4 c0 -2 -8 -10 -17 -17 -16 -13 -17 -12 -4 4 13 16 21
21 21 13z m2190 -32 c0 -8 -4 -14 -10 -14 -5 0 -10 -7 -10 -15 0 -8 -5 -15
-10 -15 -10 0 -11 56 -2 73 5 11 32 -13 32 -29z m-46 11 c3 -8 -3 -19 -12 -25
-12 -8 -14 -13 -4 -16 21 -9 13 -22 -19 -33 -39 -13 -79 -14 -79 -2 0 5 9 13
20 16 11 3 20 13 20 22 0 12 5 11 20 -7 l20 -23 1 24 c1 13 1 27 0 32 0 4 5 7
12 8 6 0 3 4 -8 9 -19 8 -19 9 1 9 12 1 24 -6 28 -14z m93 -17 c-3 -8 -6 -5
-6 6 -1 11 2 17 5 13 3 -3 4 -12 1 -19z m-142 2 c3 -6 -1 -7 -9 -4 -18 7 -21
14 -7 14 6 0 13 -4 16 -10z m-1913 -22 c-7 -7 -12 -8 -12 -2 0 14 12 26 19 19
2 -3 -1 -11 -7 -17z m60 -12 c10 6 11 4 0 -7 -10 -11 -15 -10 -30 6 -15 17
-15 18 0 6 9 -7 23 -9 30 -5z m1738 2 c0 -4 -4 -8 -9 -8 -6 0 -12 4 -15 8 -3
5 1 9 9 9 8 0 15 -4 15 -9z m33 -33 c3 -5 -1 -15 -7 -21 -9 -8 -15 -5 -22 10
-8 18 -7 22 8 22 9 0 19 -5 21 -11z m-113 -5 c0 -5 -5 -10 -11 -10 -5 0 -7 5
-4 10 3 6 8 10 11 10 2 0 4 -4 4 -10z m-1610 -24 c-7 -7 -13 -7 -20 0 -6 6 -3
10 10 10 13 0 16 -4 10 -10z m1580 4 c0 -5 8 -10 18 -11 12 0 10 -3 -7 -10
-13 -5 -26 -7 -29 -4 -3 3 0 5 7 5 7 0 9 5 6 10 -4 6 -11 7 -17 4 -7 -4 -8 -2
-4 4 9 15 26 16 26 2z m-1285 -40 c3 -5 -1 -10 -10 -10 -9 0 -13 5 -10 10 3 6
8 10 10 10 2 0 7 -4 10 -10z m60 0 c-3 -5 -12 -10 -18 -10 -7 0 -6 4 3 10 19
12 23 12 15 0z"/>
<path d="M14525 9299 c-18 -7 -17 -8 7 -8 16 -1 28 -8 31 -18 4 -15 5 -15 6
-2 2 24 -21 38 -44 28z"/>
<path d="M13286 8157 c3 -10 9 -15 12 -12 3 3 0 11 -7 18 -10 9 -11 8 -5 -6z"/>
<path d="M13180 8090 c-12 -7 -10 -9 7 -7 12 0 19 5 17 9 -6 10 -6 10 -24 -2z"/>
<path d="M9287 9735 c9 -19 18 -33 21 -31 4 5 -26 66 -33 66 -3 0 3 -16 12
-35z"/>
<path d="M9350 9678 c0 -9 -5 -18 -11 -20 -8 -3 -6 -16 6 -42 10 -20 21 -33
24 -28 3 5 17 15 29 21 17 9 22 19 19 32 -5 18 -3 18 11 7 12 -9 12 -6 -2 10
-24 27 -25 27 -35 0 -8 -22 -8 -22 -24 7 -10 19 -16 24 -17 13z m24 -50 c6 -4
7 -11 2 -15 -10 -11 -37 27 -29 40 4 7 8 6 11 -3 3 -8 10 -18 16 -22z"/>
<path d="M9465 9469 c-10 -15 3 -25 16 -12 7 7 7 13 1 17 -6 3 -14 1 -17 -5z"/>
<path d="M13367 9441 c-3 -11 1 -22 9 -25 8 -3 11 0 7 11 -3 8 0 19 8 24 11 7
11 9 -2 9 -9 0 -19 -9 -22 -19z"/>
<path d="M13396 9428 c3 -5 10 -6 15 -3 13 9 11 12 -6 12 -8 0 -12 -4 -9 -9z"/>
<path d="M13234 9414 c-18 -14 -18 -15 4 -4 12 6 22 13 22 15 0 8 -5 6 -26
-11z"/>
<path d="M9477 9404 c-3 -4 1 -17 10 -30 15 -23 16 -23 29 -7 7 10 13 23 13
28 0 6 -4 2 -10 -8 -8 -14 -14 -16 -25 -6 -7 6 -11 15 -8 20 6 10 0 12 -9 3z"/>
<path d="M13098 9347 c-49 -23 -88 -46 -88 -51 0 -4 6 -3 13 3 8 6 17 8 20 4
4 -3 7 0 7 7 0 7 3 10 7 7 3 -4 13 -2 20 5 11 9 16 9 23 -1 6 -11 10 -10 17 3
5 9 19 18 30 19 12 0 21 6 20 12 -1 5 3 9 9 8 6 -1 11 5 11 13 0 8 -1 14 -1
13 -1 0 -40 -20 -88 -42z"/>
<path d="M9531 9309 c9 -12 21 -24 28 -25 6 -1 7 0 1 3 -5 2 -8 8 -6 12 3 4
-5 13 -17 20 -21 14 -21 13 -6 -10z"/>
<path d="M9575 9309 c-4 -5 1 -9 9 -9 9 0 19 0 23 -1 4 0 9 3 10 8 4 12 -35
14 -42 2z"/>
<path d="M12935 9278 c-60 -23 -64 -27 -45 -38 10 -6 17 -4 23 5 4 8 15 12 25
11 9 -2 27 7 40 20 27 28 23 28 -43 2z"/>
<path d="M9683 9265 c0 -8 4 -12 9 -9 5 3 6 10 3 15 -9 13 -12 11 -12 -6z"/>
<path d="M12872 9199 c2 -6 -7 -12 -19 -14 -13 -1 -23 2 -23 6 0 4 -8 6 -17 4
-11 -1 -17 -9 -15 -20 2 -11 -1 -14 -9 -9 -8 4 -10 3 -5 -4 7 -12 36 -5 36 8
0 4 11 6 25 5 27 -3 53 19 35 30 -6 4 -9 1 -8 -6z"/>
<path d="M12925 9190 c3 -5 8 -10 11 -10 2 0 4 5 4 10 0 6 -5 10 -11 10 -5 0
-7 -4 -4 -10z"/>
<path d="M12723 9161 c0 -11 5 -18 9 -15 4 3 5 11 1 19 -7 21 -12 19 -10 -4z"/>
<path d="M10460 6422 c-30 -10 -66 -24 -80 -32 -42 -23 -131 -113 -153 -155
-107 -210 -25 -469 178 -561 126 -58 293 -41 403 41 89 65 89 64 26 113 l-54
42 -48 -34 c-59 -41 -101 -56 -164 -56 -209 0 -316 271 -170 432 92 102 242
112 341 23 l38 -34 53 49 53 49 -39 36 c-22 19 -67 49 -101 66 -81 41 -198 49
-283 21z"/>
<path d="M11264 6430 c-114 -23 -244 -132 -284 -237 -46 -123 -34 -273 31
-375 84 -131 249 -200 404 -168 130 26 230 106 288 228 29 61 32 76 32 162 0
86 -3 101 -32 163 -81 170 -260 262 -439 227z m181 -159 c46 -21 101 -78 123
-130 8 -20 15 -66 16 -102 1 -156 -120 -273 -266 -256 -127 15 -209 113 -210
251 0 108 57 203 146 242 45 19 143 17 191 -5z"/>
<path d="M16555 6430 c-118 -30 -185 -107 -186 -215 -1 -76 16 -119 66 -163
44 -38 58 -44 249 -97 103 -29 134 -88 77 -146 -27 -26 -36 -29 -98 -29 -75 0
-142 25 -200 74 l-32 27 -48 -52 c-26 -28 -49 -54 -51 -58 -5 -14 128 -93 187
-112 74 -23 188 -25 254 -5 62 18 102 49 132 100 50 86 42 186 -21 256 -42 47
-70 60 -212 103 -131 40 -154 56 -150 105 5 53 42 76 120 75 68 -1 123 -19
174 -58 l32 -24 37 55 c35 53 36 57 19 75 -66 73 -239 117 -349 89z"/>
<path d="M3515 6417 c-3 -6 -4 -181 -3 -387 l3 -375 280 0 280 0 3 68 3 67
-211 0 -210 0 0 90 0 90 185 0 185 0 0 70 0 70 -185 0 -185 0 0 85 0 85 205 0
205 0 0 75 0 75 -275 0 c-212 0 -277 -3 -280 -13z"/>
<path d="M4207 6424 c-4 -4 -7 -180 -7 -391 l0 -383 75 0 75 0 0 255 c0 140 4
255 8 255 5 0 53 -92 108 -205 l99 -205 45 0 45 0 105 213 105 212 3 -263 2
-263 73 3 72 3 -2 175 c-1 96 -2 271 -2 388 l-1 212 -85 0 -86 0 -113 -229
-113 -229 -115 227 -115 226 -85 3 c-46 1 -87 0 -91 -4z"/>
<path d="M5187 6423 c-3 -5 -2 -180 1 -390 l5 -383 68 0 69 0 1 153 c1 83 4
199 8 255 l6 104 100 -205 100 -206 45 0 45 -1 99 205 c55 113 103 205 108
205 4 0 8 -115 8 -255 l0 -255 69 0 c46 0 70 4 73 13 2 6 2 182 0 390 l-4 378
-87 -3 -86 -3 -110 -222 c-60 -122 -113 -223 -116 -223 -4 0 -12 15 -19 33 -7
17 -59 119 -114 224 l-101 193 -82 0 c-45 0 -84 -3 -86 -7z"/>
<path d="M6413 6418 c-6 -7 -43 -92 -83 -188 -40 -96 -110 -264 -155 -372 -45
-109 -81 -199 -79 -201 2 -1 36 -2 76 -1 l73 2 30 71 29 71 179 -2 179 -3 28
-70 28 -70 76 -2 c42 0 76 2 76 6 0 9 -151 381 -250 619 l-64 152 -67 0 c-41
0 -70 -5 -76 -12z m132 -318 c32 -83 56 -153 53 -156 -3 -2 -57 -3 -120 -2
l-115 3 61 153 c34 83 61 152 62 152 0 0 27 -68 59 -150z"/>
<path d="M8841 6423 l-254 -3 5 -383 5 -382 282 -3 281 -2 0 70 0 70 -210 0
-210 0 0 90 0 90 190 0 190 0 0 70 0 70 -190 0 -190 0 0 85 0 85 205 0 205 0
0 75 0 75 -27 -2 c-16 -2 -142 -4 -282 -5z"/>
<path d="M12654 6416 c-3 -7 -4 -40 -2 -72 l3 -59 118 -3 117 -3 0 -314 0
-315 75 0 75 0 0 315 0 315 48 0 c26 0 77 3 115 7 l67 6 0 68 0 69 -305 0
c-249 0 -307 -3 -311 -14z"/>
<path d="M13390 6037 l0 -388 73 3 72 3 3 128 3 127 72 0 72 -1 93 -129 93
-130 79 0 c44 0 80 4 80 9 0 6 -40 67 -88 138 l-89 127 43 28 c81 51 122 154
104 265 -11 68 -31 104 -80 146 -60 51 -100 58 -328 60 l-202 2 0 -388z m408
229 c54 -28 74 -116 38 -172 -28 -41 -73 -54 -191 -54 l-105 0 0 120 0 120
115 0 c81 0 124 -4 143 -14z"/>
<path d="M14137 6423 c-4 -3 -7 -179 -7 -390 l0 -383 285 0 285 0 0 70 0 70
-207 2 -208 3 0 85 0 85 188 3 187 2 0 70 0 70 -190 0 -190 0 0 85 0 85 204 0
204 0 4 71 c2 39 1 73 -1 75 -7 7 -547 4 -554 -3z"/>
<path d="M14830 6041 l0 -392 73 3 72 3 1 80 c1 44 2 102 3 128 l1 48 72 -3
72 -3 91 -125 91 -125 87 -3 c48 -1 87 0 87 3 0 4 -42 65 -94 137 l-95 130 47
32 c31 21 55 48 75 86 26 50 29 62 25 135 -7 122 -44 182 -143 227 -46 20 -68
23 -257 26 l-208 4 0 -391z m426 205 c28 -28 34 -41 34 -77 0 -103 -46 -130
-205 -127 l-110 3 0 117 0 118 124 0 123 0 34 -34z"/>
<path d="M15811 6388 c-10 -24 -62 -151 -116 -283 -53 -132 -117 -287 -141
-343 -24 -57 -44 -106 -44 -108 0 -3 35 -4 77 -2 l78 3 29 73 30 72 179 -2
179 -3 30 -72 31 -73 79 0 c71 0 79 2 74 18 -3 9 -77 184 -165 387 l-159 370
-71 3 -71 3 -19 -43z m149 -290 c30 -77 57 -145 58 -150 2 -4 -51 -8 -118 -8
-67 0 -120 4 -118 8 2 5 28 73 58 150 30 78 57 142 60 142 3 0 30 -64 60 -142z"/>
<path d="M6970 6035 l0 -386 73 3 72 3 5 255 5 255 56 -75 c30 -41 115 -157
188 -258 l133 -183 62 3 61 3 3 383 2 382 -75 0 -75 0 -2 -245 -3 -246 -184
246 -184 245 -69 0 -68 0 0 -385z"/>
<path d="M7792 6148 l3 -273 28 -57 c61 -124 170 -185 316 -176 118 7 208 64
258 161 32 64 42 168 43 425 l0 192 -74 0 -74 0 -4 -252 c-3 -240 -4 -255 -26
-295 -52 -98 -177 -122 -259 -50 -60 53 -63 68 -63 347 l0 250 -76 0 -75 0 3
-272z"/>
<path d="M9280 6035 l0 -385 260 0 260 0 0 70 0 70 -187 2 -188 3 -3 313 -2
312 -70 0 -70 0 0 -385z"/>
<path d="M11872 6038 l3 -383 73 -3 72 -3 0 251 c0 139 4 250 9 248 8 -3 53
-61 272 -350 l112 -148 59 0 58 0 0 385 0 385 -75 0 -75 0 -2 -243 -3 -243
-183 243 -184 243 -69 0 -69 0 2 -382z"/>
<path d="M7285 5161 c-157 -40 -234 -215 -161 -365 60 -122 196 -167 330 -108
71 32 126 128 126 222 0 129 -95 239 -220 253 -25 3 -58 2 -75 -2z m120 -60
c113 -51 155 -184 94 -303 l-22 -43 -36 43 c-29 33 -39 40 -49 30 -17 -17 -15
-26 14 -61 24 -29 25 -32 8 -44 -24 -17 -77 -21 -131 -8 -33 8 -91 63 -115
108 -31 62 -23 163 18 214 35 44 105 83 149 83 16 0 48 -9 70 -19z"/>
<path d="M9633 5159 c-59 -11 -96 -33 -135 -79 -80 -93 -79 -241 4 -334 85
-97 241 -109 338 -27 32 27 34 31 19 46 -15 15 -20 14 -61 -15 -84 -59 -192
-48 -257 25 -71 81 -66 222 10 292 71 65 188 69 254 7 26 -24 28 -24 46 -8 18
16 18 19 3 35 -42 46 -145 73 -221 58z"/>
<path d="M10635 5163 c-58 -13 -90 -28 -122 -56 -97 -85 -111 -254 -31 -351
50 -61 111 -90 187 -90 141 -1 241 101 241 244 0 100 -45 178 -127 222 -49 26
-112 40 -148 31z m111 -64 c70 -33 114 -107 114 -188 0 -61 -20 -108 -61 -149
-64 -63 -169 -69 -237 -15 -123 97 -105 291 33 354 52 24 99 24 151 -2z"/>
<path d="M12248 5156 c-56 -20 -85 -42 -118 -88 -39 -53 -53 -109 -47 -179 16
-181 189 -274 367 -198 74 33 75 35 72 143 l-3 96 -100 0 c-99 0 -99 0 -99
-25 0 -24 2 -25 75 -25 l75 0 0 -63 c0 -63 0 -63 -37 -81 -209 -99 -393 127
-255 313 60 81 198 93 274 24 14 -13 20 -13 33 -3 25 21 17 36 -34 63 -60 33
-150 43 -203 23z"/>
<path d="M6213 5143 c-3 -10 -47 -110 -98 -223 -115 -257 -113 -250 -82 -250
20 0 29 10 50 60 l26 60 139 0 139 0 26 -60 c22 -51 29 -60 51 -60 31 0 39
-24 -90 260 -92 204 -104 225 -128 228 -18 2 -28 -2 -33 -15z m85 -159 c70
-153 68 -142 15 -150 -47 -7 -160 0 -170 10 -4 3 11 45 32 94 21 48 44 102 52
121 8 18 18 30 22 25 4 -5 26 -50 49 -100z"/>
<path d="M6610 4910 l0 -251 23 3 c21 3 22 8 25 101 l3 97 67 0 68 0 69 -95
c63 -85 73 -94 102 -95 l32 0 -73 98 -73 97 30 7 c16 3 43 20 60 37 41 40 49
128 18 178 -38 60 -61 68 -213 71 l-138 4 0 -252z m291 171 c21 -22 29 -39 29
-66 0 -80 -43 -105 -180 -105 l-90 0 0 100 0 100 106 0 c103 0 106 -1 135 -29z"/>
<path d="M7720 4985 c0 -197 6 -222 63 -272 89 -78 242 -58 298 41 22 38 24
53 27 224 l4 182 -26 0 -26 0 0 -167 c0 -189 -8 -220 -69 -260 -63 -42 -153
-21 -198 46 -22 32 -23 44 -23 207 l0 174 -25 0 -25 0 0 -175z"/>
<path d="M8280 4915 l0 -245 25 0 25 0 0 245 0 245 -25 0 -25 0 0 -245z"/>
<path d="M8464 5145 c-11 -27 7 -35 87 -35 l79 0 0 -220 0 -220 25 0 25 0 0
220 0 220 85 0 c84 0 85 0 85 25 l0 25 -190 0 c-157 0 -192 -3 -196 -15z"/>
<path d="M8980 4915 l0 -245 175 0 175 0 0 25 0 25 -150 0 -150 0 0 85 0 84
138 3 c129 3 137 4 137 23 0 19 -8 20 -137 23 l-138 3 0 84 0 85 145 0 145 0
0 25 0 25 -170 0 -170 0 0 -245z"/>
<path d="M9960 5135 c0 -24 2 -24 83 -27 l82 -3 3 -217 2 -218 25 0 25 0 0
220 0 220 80 0 c79 0 80 0 80 25 l0 25 -190 0 -190 0 0 -25z"/>
<path d="M11300 4915 l0 -247 128 4 c105 3 134 7 167 25 85 45 125 114 125
213 0 72 -19 123 -63 168 -60 63 -98 76 -234 80 l-123 4 0 -247z m283 165 c74
-50 107 -164 72 -248 -36 -86 -85 -113 -208 -115 l-92 -2 -3 198 -2 199 98 -4
c85 -3 103 -6 135 -28z"/>
<path d="M11872 4918 l3 -243 23 -3 22 -3 0 245 0 246 -25 0 -25 0 2 -242z"/>
<path d="M12680 4915 l0 -245 25 0 25 0 0 245 0 245 -25 0 -25 0 0 -245z"/>
<path d="M12870 5135 c0 -25 1 -25 80 -25 l79 0 6 -32 c3 -18 4 -117 2 -220
l-4 -188 24 0 23 0 0 220 0 220 86 0 c83 0 85 1 82 23 -3 22 -5 22 -190 25
l-188 2 0 -25z"/>
<path d="M13502 5133 c-5 -16 -53 -123 -106 -240 -53 -116 -96 -214 -96 -217
0 -3 11 -6 24 -6 19 0 28 11 49 60 l26 60 141 0 141 0 26 -60 c23 -53 30 -60
54 -60 l28 0 -32 69 c-18 38 -68 148 -112 245 -74 163 -82 175 -107 176 -20 0
-28 -7 -36 -27z m99 -166 c27 -60 49 -113 49 -118 0 -5 -49 -9 -110 -9 -60 0
-110 2 -110 4 0 6 99 236 107 249 4 7 8 6 11 -3 3 -8 27 -64 53 -123z"/>
<path d="M13900 4938 c0 -123 3 -233 6 -245 6 -23 9 -23 166 -23 l159 0 -3 23
c-3 21 -6 22 -140 25 l-138 3 0 219 0 220 -25 0 -25 0 0 -222z"/>
<path d="M7533 4665 c-14 -10 -24 -11 -28 -5 -3 5 -10 10 -16 10 -16 0 -10
-37 12 -64 l22 -27 28 27 c33 32 34 34 16 57 -11 16 -14 16 -34 2z"/>
</g>
</svg>
